<svg width="72" height="70" viewBox="0 0 72 70" fill="none" xmlns="http://www.w3.org/2000/svg">
<g clip-path="url(#clip0_119_152)">
<path d="M21.2119 12.8935L18.6514 9.53416L16.0909 6.17486C15.9913 6.04205 15.9318 5.88893 15.919 5.73112C15.9061 5.57331 15.935 5.41238 16.0106 5.26394C16.062 5.16395 16.7049 3.95304 18.2737 2.71713C19.8424 1.48122 22.3386 0.218745 26.0997 0.0140622C26.1271 0.00937479 26.1528 0.00624986 26.1801 0.00312493C26.2074 0 26.2348 0 26.2637 0H26.4341C26.4614 0 26.4903 0 26.5176 0.00312493C26.545 0.00624986 26.5723 0.00937479 26.598 0.0140622C30.3591 0.217183 32.8569 1.47965 34.4257 2.71556C35.9944 3.95147 36.6373 5.16238 36.6888 5.26238C36.7643 5.40925 36.7949 5.57175 36.7804 5.72956C36.7659 5.88737 36.7081 6.04205 36.6068 6.1733L34.0319 9.55447L31.457 12.9356C31.608 13.006 31.7366 13.1153 31.8282 13.2497C31.9199 13.3841 31.9729 13.545 31.9729 13.7184V17.7559C31.9729 17.998 31.8716 18.2168 31.7093 18.3746C31.547 18.5324 31.3219 18.6308 31.0728 18.6308H30.3399L29.5282 42.5694L28.7165 66.5079C28.6988 67.0298 28.6699 67.9016 28.3532 68.6422C28.0366 69.3828 27.4338 69.9953 26.2685 69.9953C25.1032 69.9953 24.5005 69.3844 24.1838 68.6422C23.8672 67.9 23.8382 67.0282 23.8206 66.5079L23.0089 42.5694L22.1972 18.6308H21.4642C21.2151 18.6308 20.9901 18.5324 20.8277 18.3746C20.6654 18.2168 20.5641 17.998 20.5641 17.7559V13.7184C20.5641 13.52 20.6332 13.3403 20.7506 13.1966C20.8679 13.0528 21.0303 12.9466 21.2167 12.8919L21.2119 12.8935ZM30.1727 14.595H22.3611V16.884H30.1727V14.595ZM26.9163 66.4548L27.7264 42.5444L28.5364 18.634H23.9958L24.8059 42.5444L25.6159 66.4548C25.6465 67.3532 25.7397 67.8016 25.8603 68.0266C25.9808 68.2516 26.1271 68.2516 26.2653 68.2516C26.4035 68.2516 26.5498 68.2516 26.6703 68.0266C26.7909 67.8016 26.8841 67.3532 26.9147 66.4548H26.9163ZM26.3521 1.75621C23.7097 1.87652 21.7889 2.58119 20.4323 3.3843C19.0757 4.18741 18.2849 5.09207 17.9056 5.61237L20.6606 9.22948L23.4155 12.8466H29.2887L32.0452 9.22792L34.8018 5.60925C34.4225 5.08582 33.6381 4.18272 32.2847 3.37961C30.9314 2.5765 29.0074 1.87496 26.3537 1.75465L26.3521 1.75621Z" fill="black"/>
<path d="M2.24731 12.8935L1.88244 12.4138L1.51758 11.9341C0.668916 10.8201 0.170646 9.52635 0.0372385 8.19669C-0.0961692 6.86703 0.135285 5.503 0.74446 4.24522C1.34721 2.99993 2.2457 1.98433 3.3435 1.25778C4.4413 0.531238 5.73841 0.0968728 7.13839 0.0140622C7.1641 0.00937479 7.19143 0.00624986 7.21875 0.00312493C7.24608 0 7.2734 0 7.30073 0H7.4711C7.49843 0 7.52575 0 7.55308 0.00312493C7.5804 0.00624986 7.60773 0.00937479 7.63344 0.0140622C9.03503 0.0968728 10.3305 0.531238 11.4283 1.25778C12.5261 1.98433 13.423 2.99993 14.0274 4.24366C14.6382 5.50144 14.868 6.86703 14.7346 8.19513C14.6012 9.52322 14.1029 10.8169 13.2542 11.931L12.8717 12.4325L12.4892 12.9341C12.6403 13.0044 12.7688 13.1138 12.8605 13.2481C12.9521 13.3825 13.0051 13.5434 13.0051 13.7169V17.7543C13.0051 17.9965 12.9039 18.2152 12.7415 18.373C12.5792 18.5308 12.3541 18.6293 12.105 18.6293H11.3721L10.5604 42.5678L9.74868 66.5063C9.731 67.0282 9.70207 67.9 9.38542 68.6407C9.06878 69.3813 8.46603 69.9938 7.30073 69.9938C6.13542 69.9938 5.53267 69.3828 5.21603 68.6407C4.89939 67.8985 4.87046 67.0266 4.85278 66.5063L4.04108 42.5678L3.22938 18.6293H2.49483C2.2457 18.6293 2.02067 18.5308 1.85833 18.373C1.69599 18.2152 1.59473 17.9965 1.59473 17.7543V13.7169C1.59473 13.5184 1.66385 13.3388 1.78118 13.195C1.89852 13.0513 2.06086 12.945 2.24731 12.8903V12.8935ZM11.2065 14.595H3.39493V16.884H11.2065V14.595ZM7.95009 66.4548L8.76018 42.5444L9.57027 18.634H5.03119L5.84128 42.5444L6.65137 66.4548C6.68191 67.3532 6.77513 67.8016 6.89568 68.0266C7.01623 68.2516 7.1625 68.2516 7.30073 68.2516C7.43896 68.2516 7.58522 68.2516 7.70577 68.0266C7.82632 67.8016 7.91955 67.3532 7.95009 66.4548ZM2.37268 4.99208C1.89691 5.97174 1.71528 7.01391 1.81654 8.02638C1.91781 9.03886 2.30356 10.0248 2.96578 10.8919L3.70836 11.8669L4.45094 12.8419H10.3241L11.0667 11.8669L11.8093 10.8919C12.4699 10.0248 12.8556 9.03886 12.9569 8.02638C13.0582 7.01391 12.8749 5.97174 12.3992 4.99208C11.9346 4.03429 11.2419 3.25305 10.3948 2.69838C9.54776 2.1437 8.54962 1.81402 7.4711 1.75934H7.42771L7.38431 1.75465H7.3393L7.2943 1.75934C6.21739 1.81402 5.21764 2.1437 4.37219 2.69838C3.52673 3.25305 2.83398 4.03429 2.36786 4.99208H2.37268Z" fill="black"/>
<path d="M50.9906 35.0085C46.6846 34.3304 42.8817 32.1774 40.1556 29.1009C37.4296 26.0244 35.7789 22.0229 35.7789 17.6496C35.7789 12.795 37.8106 8.39351 41.0895 5.20609C44.3684 2.01866 48.8963 0.0437012 53.8886 0.0437012C58.8809 0.0437012 63.4088 2.01866 66.6893 5.20609C69.9699 8.39351 71.9999 12.795 71.9999 17.6496C71.9999 22.0526 70.3267 26.0791 67.5653 29.1634C64.8039 32.2477 60.9576 34.3929 56.6098 35.0351C60.9158 35.7132 64.7187 37.8647 67.4447 40.9428C70.1708 44.0208 71.8215 48.0208 71.8215 52.3941C71.8215 57.2487 69.7898 61.6501 66.5109 64.8376C63.232 68.025 58.7041 70 53.7102 70C48.7162 70 44.19 68.025 40.9095 64.8376C37.6289 61.6501 35.5989 57.2487 35.5989 52.3941C35.5989 47.9911 37.2721 43.9646 40.0335 40.8803C42.7949 37.796 46.6412 35.6507 50.989 35.0085H50.9906ZM70.0245 52.3941C70.0245 48.0223 68.1954 44.0583 65.2427 41.1881C62.2901 38.3178 58.2123 36.5382 53.7134 36.5382C49.2145 36.5382 45.1383 38.3163 42.1857 41.1881C39.233 44.0599 37.4023 48.0239 37.4023 52.3941C37.4023 56.7643 39.2314 60.7298 42.1841 63.6001C45.1367 66.4703 49.2145 68.25 53.7134 68.25C58.2123 68.25 62.2885 66.4719 65.2411 63.6001C68.1938 60.7283 70.0245 56.7643 70.0245 52.3941ZM53.8902 1.7921C49.3945 1.7921 45.3167 3.57019 42.3625 6.442C39.4082 9.31381 37.5791 13.2778 37.5791 17.648C37.5791 22.0198 39.4082 25.9837 42.3625 28.854C45.3167 31.7242 49.3945 33.5039 53.8902 33.5039C58.3859 33.5039 62.4653 31.7258 65.4179 28.854C68.3706 25.9822 70.2013 22.0182 70.2013 17.648C70.2013 13.2778 68.3722 9.31224 65.4195 6.442C62.4669 3.57175 58.3891 1.7921 53.8902 1.7921Z" fill="black"/>
<path d="M53.8904 31.4508C49.9878 31.4508 46.4501 29.907 43.8864 27.4165C41.3228 24.9259 39.7363 21.4854 39.7363 17.6917C39.7363 13.898 41.3244 10.4575 43.8864 7.9669C46.4485 5.47633 49.9878 3.93262 53.8904 3.93262C57.793 3.93262 61.3307 5.47633 63.8944 7.9669C66.4581 10.4575 68.0445 13.898 68.0445 17.6917C68.0445 21.4854 66.4565 24.9243 63.8944 27.4165C61.3323 29.9086 57.793 31.4508 53.8904 31.4508ZM53.8904 5.68258C50.4845 5.68258 47.3968 7.02942 45.1594 9.20437C42.922 11.3793 41.5365 14.3824 41.5365 17.6932C41.5365 21.0041 42.922 24.0056 45.1594 26.1806C47.3968 28.3555 50.4845 29.7024 53.8904 29.7024C57.2963 29.7024 60.384 28.3555 62.6214 26.1806C64.8588 24.0056 66.2443 21.0041 66.2443 17.6932C66.2443 14.3824 64.8588 11.3793 62.6214 9.20437C60.384 7.02942 57.2963 5.68258 53.8904 5.68258Z" fill="black"/>
<path d="M39.5593 52.3942C39.5593 48.6005 41.1474 45.1615 43.7094 42.6694C46.2715 40.1773 49.8108 38.6335 53.7134 38.6335C57.616 38.6335 61.1537 40.1773 63.7174 42.6678C66.2811 45.1584 67.8675 48.5989 67.8675 52.3926C67.8675 56.1863 66.2795 59.6253 63.7174 62.1174C61.1553 64.6095 57.616 66.1517 53.7134 66.1517C49.8108 66.1517 46.2731 64.608 43.7094 62.1174C41.1458 59.6268 39.5593 56.1863 39.5593 52.3926V52.3942ZM52.8133 40.4288C49.7658 40.6444 47.0253 41.9366 44.9905 43.9147C42.9556 45.8928 41.6263 48.5583 41.4045 51.5192H52.8133V40.4288ZM41.4045 53.2692C41.6263 56.2316 42.9556 58.8956 44.9905 60.8737C47.0253 62.8518 49.7658 64.1439 52.8133 64.358V53.2692H41.4061H41.4045ZM54.6135 64.3595C57.661 64.1439 60.4015 62.8533 62.4363 60.8752C64.4712 58.8972 65.8005 56.2316 66.0207 53.2707H54.6119V64.3611L54.6135 64.3595ZM66.0223 51.5192C65.8005 48.5568 64.4728 45.8928 62.438 43.9147C60.4031 41.9366 57.661 40.6444 54.6151 40.4288V51.5192H66.0239H66.0223Z" fill="black"/>
<path d="M53.4934 10.8559C53.2458 10.8559 53.0192 10.7575 52.8569 10.5997C52.6945 10.4419 52.5933 10.2231 52.5933 9.98094C52.5933 9.73876 52.6945 9.52001 52.8569 9.3622C53.0192 9.20439 53.2442 9.10596 53.4934 9.10596C55.8433 9.10596 57.9746 10.0356 59.5176 11.5356C61.0606 13.0356 62.017 15.1074 62.017 17.3917C62.017 17.6339 61.9157 17.8526 61.7534 18.0104C61.5911 18.1683 61.366 18.2667 61.1169 18.2667C60.8678 18.2667 60.6427 18.1683 60.4804 18.0104C60.3181 17.8526 60.2168 17.6339 60.2168 17.3917C60.2168 15.5902 59.463 13.9558 58.2446 12.7715C57.0263 11.5872 55.3466 10.8544 53.4918 10.8544L53.4934 10.8559Z" fill="black"/>
</g>
<defs>
<clipPath id="clip0_119_152">
<rect width="72" height="70" fill="white"/>
</clipPath>
</defs>
</svg>
