<svg width="47" height="35" viewBox="0 0 47 35" fill="none" xmlns="http://www.w3.org/2000/svg">
<path d="M23.604 27.2235C19.4015 27.2235 16.0078 23.8298 16.0078 19.6274C16.0078 15.425 19.4015 12.0312 23.604 12.0312C27.8064 12.0312 31.2001 15.425 31.2001 19.6274C31.2001 23.8298 27.8064 27.2235 23.604 27.2235Z" stroke="black" stroke-width="2" stroke-miterlimit="10"/>
<path d="M41.0942 33.3477H6.10769C3.71656 33.3477 1.76953 31.4026 1.76953 29.0095V10.4564C1.76953 8.06531 3.71462 6.11828 6.10769 6.11828H14.0102L17.3206 1.8092C17.5533 1.52025 17.8985 1.34766 18.2456 1.34766H28.9543C29.3034 1.34766 29.6486 1.52025 29.8774 1.80726L33.1897 6.11828H41.0942C43.4853 6.11828 45.4323 8.06337 45.4323 10.4564V29.0095C45.4323 31.4006 43.4872 33.3477 41.0942 33.3477V33.3477Z" stroke="black" stroke-width="2" stroke-miterlimit="10"/>
</svg>
