<svg width="44" height="53" viewBox="0 0 44 53" fill="none" xmlns="http://www.w3.org/2000/svg">
<path d="M40.8166 51.5645H2.28146C1.57396 51.5645 1 50.9895 1 50.2807V2.84819C1 2.17229 1.52711 1.61374 2.19244 1.56915L2.28146 1.56445H34.414C34.7607 1.56445 35.0864 1.70292 35.3324 1.95169L41.7233 8.35394C41.9646 8.59567 42.0981 8.91953 42.0981 9.26218V50.2807C42.0981 50.9895 41.5241 51.5645 40.8166 51.5645V51.5645Z" stroke="black" stroke-width="2" stroke-miterlimit="10"/>
<path d="M30.1342 38.9592H25.4347C24.7272 38.9592 24.1533 38.3842 24.1533 37.6754V35.0117L20.4401 37.8726C20.2105 38.0791 19.9059 38.1964 19.5873 38.1964C18.8798 38.1964 18.3059 37.6215 18.3059 36.9127V35.0587L13.7399 38.6822C13.4729 38.8935 13.1402 38.9897 12.8005 38.9498C12.4608 38.9099 12.1586 38.7409 11.9478 38.4734C11.7369 38.2058 11.6409 37.8702 11.6807 37.5323C11.7205 37.192 11.8892 36.8892 12.1586 36.678L18.7955 31.4117C19.3484 30.9751 20.1519 31.069 20.5877 31.6205C20.7423 31.8177 20.836 32.0476 20.8571 32.2964H20.8618L20.8688 32.4138V34.3124L24.6523 31.3999C25.2098 30.9704 26.0134 31.0737 26.4444 31.6299C26.5944 31.8247 26.6834 32.0523 26.7068 32.2941H26.7115V36.394H30.1342C30.8417 36.394 31.4157 36.969 31.4157 37.6778C31.4157 38.3865 30.8417 38.9615 30.1342 38.9615V38.9592Z" fill="black"/>
<path d="M31.8488 25.8604H11.2307C10.5232 25.8604 9.94922 25.2855 9.94922 24.5767C9.94922 23.868 10.5232 23.293 11.2307 23.293H31.8488C32.5563 23.293 33.1303 23.868 33.1303 24.5767C33.1303 25.2855 32.5563 25.8604 31.8488 25.8604Z" fill="black"/>
<path d="M31.8488 16.7413H11.2307C10.5232 16.7413 9.94922 16.1663 9.94922 15.4576C9.94922 14.7488 10.5232 14.1738 11.2307 14.1738H31.8488C32.5563 14.1738 33.1303 14.7488 33.1303 15.4576C33.1303 16.1663 32.5563 16.7413 31.8488 16.7413Z" fill="black"/>
</svg>
