<svg width="1104" height="423" viewBox="0 0 1104 423" fill="none" xmlns="http://www.w3.org/2000/svg">
<path d="M382.236 101.35C400.191 101.35 412.206 90.955 415.176 74.35L391.821 66.115C391.146 73.405 388.581 79.615 382.101 79.615C374.946 79.615 370.221 72.19 370.221 54.91C370.221 37.63 374.946 30.34 382.101 30.34C388.446 30.34 391.011 36.28 391.686 43.57L415.176 35.2C412.206 18.73 400.056 8.47004 382.236 8.47004C358.341 8.47004 343.626 25.21 343.626 54.91C343.626 84.61 358.341 101.35 382.236 101.35ZM496.26 54.91C496.26 25.345 481.68 8.47004 457.65 8.47004C433.62 8.47004 418.905 25.345 418.905 54.91C418.905 84.475 433.62 101.35 457.65 101.35C481.68 101.35 496.26 84.475 496.26 54.91ZM445.5 54.91C445.5 37.9 449.55 29.8 457.65 29.8C465.75 29.8 469.8 37.9 469.8 54.91C469.8 71.92 465.75 80.02 457.65 80.02C449.55 80.02 445.5 71.92 445.5 54.91ZM553.136 55.585H552.866L528.701 9.82004H504.806V100H528.971V53.83H529.241L554.756 100H577.301V9.82004H553.136V55.585ZM637.247 55.585H636.977L612.812 9.82004H588.917V100H613.082V53.83H613.352L638.867 100H661.412V9.82004H637.247V55.585ZM731.078 78.94H698.003V64.09H726.758V44.92H698.003V30.88H730.943V9.82004H673.028V100H731.078V78.94ZM775.371 101.35C793.326 101.35 805.341 90.955 808.311 74.35L784.956 66.115C784.281 73.405 781.716 79.615 775.236 79.615C768.081 79.615 763.356 72.19 763.356 54.91C763.356 37.63 768.081 30.34 775.236 30.34C781.581 30.34 784.146 36.28 784.821 43.57L808.311 35.2C805.341 18.73 793.191 8.47004 775.371 8.47004C751.476 8.47004 736.761 25.21 736.761 54.91C736.761 84.61 751.476 101.35 775.371 101.35ZM860.366 100V31.015H882.776V9.82004H812.036V31.015H834.581V100H860.366ZM890.953 9.82004V100H916.738V9.82004H890.953ZM976.724 55.585H976.454L952.289 9.82004H928.394V100H952.559V53.83H952.829L978.344 100H1000.89V9.82004H976.724V55.585ZM1049.5 50.59V67.465H1059.22V69.76C1059.22 76.645 1055.44 80.425 1049.09 80.425C1039.78 80.425 1035.86 71.245 1035.86 56.125C1035.86 38.17 1041.26 30.34 1048.82 30.34C1055.57 30.34 1058.27 36.01 1059.08 43.3L1083.38 35.47C1080.28 18.865 1067.59 8.47004 1049.23 8.47004C1025.2 8.47004 1009.27 26.29 1009.27 56.125C1009.27 84.745 1024.12 101.35 1043.83 101.35C1053.41 101.35 1061.51 97.435 1064.75 90.685L1067.45 100H1084.33V50.59H1049.5ZM266.45 157.83C274.955 155.805 280.49 148.92 280.49 137.715C280.49 123 271.175 113.82 253.49 113.82H215.69V204H253.22C274.01 204 283.595 193.74 283.595 179.025C283.595 167.955 277.52 160.125 266.45 158.1V157.83ZM240.395 133.125H247.82C253.355 133.125 255.785 136.095 255.785 142.035C255.785 147.975 253.22 150.81 247.685 150.81H240.395V133.125ZM240.395 166.875H249.305C255.11 166.875 257.675 170.115 257.675 175.785C257.675 181.725 255.38 184.83 249.305 184.83H240.395V166.875ZM326.193 154.05H316.743V134.475H326.193C332.403 134.475 334.968 137.715 334.968 144.06C334.968 150.945 332.268 154.05 326.193 154.05ZM365.208 204C362.643 200.895 361.293 197.655 360.483 193.335L357.648 177.135C356.028 169.17 351.573 164.715 344.688 163.23V162.96C353.328 161.205 361.293 153.51 361.293 140.955C361.293 122.46 349.143 113.82 329.298 113.82H291.363V204H316.743V173.49H324.573C329.298 173.49 331.728 175.65 332.673 181.05L334.293 193.74C335.103 198.33 336.048 201.3 337.938 204H365.208ZM406.887 140.955H407.157L414.177 168.495H400.002L406.887 140.955ZM423.087 204H448.736L422.682 113.82H392.307L366.387 204H391.092L395.277 187.26H418.902L423.087 204ZM503.302 159.585H503.032L478.867 113.82H454.972V204H479.137V157.83H479.407L504.922 204H527.467V113.82H503.302V159.585ZM539.083 204H571.483C596.458 204 612.253 189.15 612.253 158.91C612.253 128.535 596.593 113.82 571.483 113.82H539.083V204ZM564.733 135.15H570.538C580.258 135.15 585.658 142.035 585.658 158.91C585.658 175.65 580.258 182.67 570.403 182.67H564.733V135.15ZM683.593 177.135C683.593 145.41 642.823 150.945 642.823 138.66C642.823 134.61 645.928 132.045 650.518 132.045C655.378 132.045 659.698 135.555 660.373 141.9L682.648 136.23C680.083 121.11 668.878 112.47 650.518 112.47C631.888 112.47 617.173 123.405 617.173 141.09C617.173 172.005 657.673 166.2 657.673 179.025C657.673 183.345 654.163 185.64 649.303 185.64C643.093 185.64 637.693 181.32 636.883 173.895L615.013 181.995C617.983 196.305 630.943 205.35 649.303 205.35C667.798 205.35 683.593 195.225 683.593 177.135ZM43.0669 217.82L34.9669 269.66H34.5619L25.9219 217.82H0.541953L19.0369 308H44.5519L53.1919 257.24H53.5969L62.2369 308H87.6169L106.112 217.82H81.6769L73.0369 269.66H72.7669L64.3969 217.82H43.0669ZM112.462 217.82V308H138.247V217.82H112.462ZM194.859 308V239.015H217.269V217.82H146.529V239.015H169.074V308H194.859ZM251.231 308V273.17H273.101V308H298.885V217.82H273.101V251.57H251.231V217.82H225.446V308H251.231ZM320.631 321.82V412H346.416V321.82H320.631ZM406.402 367.585H406.132L381.967 321.82H358.072V412H382.237V365.83H382.507L408.022 412H430.567V321.82H406.402V367.585ZM467.834 412V380.815H495.239V360.565H467.834V343.015H499.019V321.82H442.184V412H467.834ZM507.97 321.82V412H564.4V390.805H533.755V321.82H507.97ZM595.962 378.655V321.82H570.177V378.79C570.177 402.55 584.352 413.35 605.412 413.35C626.472 413.35 640.647 402.55 640.647 378.79V321.82H614.862V378.655C614.862 386.08 612.702 392.02 605.412 392.02C597.987 392.02 595.962 386.08 595.962 378.655ZM709.325 390.94H676.25V376.09H705.005V356.92H676.25V342.88H709.19V321.82H651.275V412H709.325V390.94ZM767.896 367.585H767.626L743.461 321.82H719.566V412H743.731V365.83H744.001L769.516 412H792.061V321.82H767.896V367.585ZM839.048 413.35C857.003 413.35 869.018 402.955 871.988 386.35L848.633 378.115C847.958 385.405 845.393 391.615 838.913 391.615C831.758 391.615 827.033 384.19 827.033 366.91C827.033 349.63 831.758 342.34 838.913 342.34C845.258 342.34 847.823 348.28 848.498 355.57L871.988 347.2C869.018 330.73 856.868 320.47 839.048 320.47C815.153 320.47 800.438 337.21 800.438 366.91C800.438 396.61 815.153 413.35 839.048 413.35ZM937.006 390.94H903.931V376.09H932.686V356.92H903.931V342.88H936.871V321.82H878.956V412H937.006V390.94ZM982.077 362.05H972.627V342.475H982.077C988.287 342.475 990.852 345.715 990.852 352.06C990.852 358.945 988.152 362.05 982.077 362.05ZM1021.09 412C1018.53 408.895 1017.18 405.655 1016.37 401.335L1013.53 385.135C1011.91 377.17 1007.46 372.715 1000.57 371.23V370.96C1009.21 369.205 1017.18 361.51 1017.18 348.955C1017.18 330.46 1005.03 321.82 985.182 321.82H947.247V412H972.627V381.49H980.457C985.182 381.49 987.612 383.65 988.557 389.05L990.177 401.74C990.987 406.33 991.932 409.3 993.822 412H1021.09ZM1090.18 385.135C1090.18 353.41 1049.41 358.945 1049.41 346.66C1049.41 342.61 1052.51 340.045 1057.1 340.045C1061.96 340.045 1066.28 343.555 1066.96 349.9L1089.23 344.23C1086.67 329.11 1075.46 320.47 1057.1 320.47C1038.47 320.47 1023.76 331.405 1023.76 349.09C1023.76 380.005 1064.26 374.2 1064.26 387.025C1064.26 391.345 1060.75 393.64 1055.89 393.64C1049.68 393.64 1044.28 389.32 1043.47 381.895L1021.6 389.995C1024.57 404.305 1037.53 413.35 1055.89 413.35C1074.38 413.35 1090.18 403.225 1090.18 385.135Z" fill="white"/>
<path fill-rule="evenodd" clip-rule="evenodd" d="M15.4994 4.59375C6.94038 4.59375 0.00195312 11.5322 0.00195312 20.0911V81.5711C0.00195312 82.8931 0.00195312 84.238 0.00195312 85.5599V188.503C0.00195312 197.062 6.9404 204 15.4994 204H167.374C175.933 204 182.871 197.062 182.871 188.503V112.566C182.871 104.007 189.81 97.0685 198.369 97.0685H298.356C306.915 97.0685 313.854 90.1301 313.854 81.5711V20.0912C313.854 11.5322 306.915 4.59375 298.356 4.59375H15.4994Z" fill="#C4FF78"/>
<path fill-rule="evenodd" clip-rule="evenodd" d="M1084 293.436C1084 301.995 1077.06 308.934 1068.5 308.934H992.003C992 308.934 991.996 308.934 991.993 308.934L714.708 308.934L355.201 308.934C346.642 308.934 339.703 301.995 339.703 293.436L339.703 230.895C339.703 222.336 346.642 215.398 355.201 215.398L678.533 215.398C689.953 215.398 699.21 206.14 699.21 194.72V128.989C699.21 120.43 706.149 113.491 714.708 113.491L1068.5 113.491C1077.06 113.491 1084 120.43 1084 128.989V293.436Z" fill="#FF4D24"/>
<path d="M272.87 412C281.429 412 288.367 405.062 288.367 396.503L288.367 335.387C288.367 326.828 281.429 319.889 272.87 319.889L15.498 319.889C6.93903 319.889 0.000553039 326.828 0.000552665 335.387L0.000549994 396.503C0.00054962 405.062 6.939 412 15.498 412L272.87 412Z" fill="#3CA2F3"/>
</svg>
