<svg width="68" height="52" viewBox="0 0 68 52" fill="none" xmlns="http://www.w3.org/2000/svg">
<path d="M42.982 30.4414C43.0141 30.7448 43.0287 31.0511 43.0287 31.3633C43.0287 34.7066 41.2112 37.6239 38.5098 39.1847C39.5367 39.5523 40.5023 40.0511 41.3921 40.6521C42.667 37.0404 45.4997 34.161 49.0822 32.822C48.0115 32.221 47.0809 31.41 46.337 30.4414" stroke="black" stroke-width="2" stroke-miterlimit="10"/>
<path d="M21.5103 30.4414C20.7897 31.3779 19.8911 32.1685 18.8613 32.7636C22.5459 34.0881 25.4574 37.0317 26.7381 40.7367C27.6163 40.127 28.5732 39.6194 29.5913 39.2401C26.8344 37.6939 24.9732 34.7474 24.9732 31.3633C24.9732 31.0511 24.9878 30.7448 25.0198 30.4414" stroke="black" stroke-width="2" stroke-miterlimit="10"/>
<path d="M25.0176 30.4413C25.4785 25.8873 29.3236 22.334 34.0001 22.334C38.6765 22.334 42.5216 25.8873 42.9825 30.4413" stroke="black" stroke-width="2" stroke-miterlimit="10"/>
<path d="M46.3354 30.4405C45.1626 28.9177 44.4624 27.0126 44.4624 24.9413C44.4624 24.247 44.5441 23.5702 44.6929 22.9196C43.173 20.787 41.02 19.1358 38.5111 18.2344C37.1837 19.0016 35.6462 19.4422 34.0008 19.4422C32.3555 19.4422 30.8968 19.0221 29.5927 18.2927C26.9701 19.2729 24.75 21.0788 23.2475 23.3922C23.3351 23.8969 23.3817 24.4133 23.3817 24.9413C23.3817 27.0126 22.6845 28.9177 21.5117 30.4405" stroke="black" stroke-width="2" stroke-miterlimit="10"/>
<path d="M38.5101 18.2373C41.2115 16.6765 43.029 13.7591 43.029 10.4159C43.029 5.43015 38.9885 1.38672 33.9999 1.38672C29.0112 1.38672 24.9707 5.42723 24.9707 10.4159C24.9707 13.8 26.8349 16.7465 29.5889 18.2927C30.8929 19.0249 32.3953 19.4421 33.9969 19.4421C35.5986 19.4421 37.1798 19.0016 38.5072 18.2343L38.5101 18.2373Z" stroke="black" stroke-width="2" stroke-miterlimit="10"/>
<path d="M22.8647 44.9689C23.8274 43.2855 25.1519 41.8415 26.7389 40.7387C25.4582 37.0337 22.5496 34.0872 18.8621 32.7656C17.5347 33.5329 15.9973 33.9734 14.3519 33.9734C12.7065 33.9734 11.2479 33.5533 9.9438 32.824C5.02225 34.6648 1.51562 39.4084 1.51562 44.9718" stroke="black" stroke-width="2" stroke-miterlimit="10"/>
<path d="M18.8626 32.7636C19.8895 32.1685 20.791 31.3779 21.5116 30.4414C22.6843 28.9186 23.3816 27.0136 23.3816 24.9423C23.3816 24.4142 23.3349 23.8949 23.2474 23.3932C22.5122 19.1455 18.813 15.916 14.3553 15.916C9.36961 15.916 5.32617 19.9565 5.32617 24.9452C5.32617 28.3293 7.19034 31.2758 9.94431 32.822C11.2484 33.5542 12.7508 33.9714 14.3524 33.9714C15.954 33.9714 17.5352 33.5309 18.8626 32.7636V32.7636Z" stroke="black" stroke-width="2" stroke-miterlimit="10"/>
<path d="M66.5818 44.9689C66.5818 39.3471 63.0023 34.5598 57.999 32.7656C56.6716 33.5329 55.1342 33.9734 53.4888 33.9734C51.8435 33.9734 50.3848 33.5533 49.0807 32.824C45.4983 34.163 42.6684 37.0395 41.3906 40.6541C43.0331 41.7656 44.4042 43.2447 45.3932 44.9718" stroke="black" stroke-width="2" stroke-miterlimit="10"/>
<path d="M46.3348 30.4405C47.0788 31.4061 48.0123 32.22 49.0801 32.821C50.3841 33.5533 51.8865 33.9704 53.4882 33.9704C55.0898 33.9704 56.671 33.5299 57.9984 32.7627C60.6998 31.2019 62.5173 28.2845 62.5173 24.9413C62.5173 19.9555 58.4768 15.9121 53.4882 15.9121C49.1968 15.9121 45.6084 18.9053 44.6895 22.9196C44.5407 23.5701 44.459 24.244 44.459 24.9413C44.459 27.0126 45.1592 28.9176 46.3319 30.4405H46.3348Z" stroke="black" stroke-width="2" stroke-miterlimit="10"/>
<path d="M47.0924 51.3868C47.0924 49.05 46.4739 46.8591 45.3916 44.9687C44.4055 43.2416 43.0314 41.7625 41.389 40.651C40.4992 40.05 39.5336 39.5512 38.5067 39.1836C37.1793 39.9509 35.6418 40.3914 33.9964 40.3914C32.3511 40.3914 30.8924 39.9713 29.5883 39.2419C28.5702 39.6212 27.6133 40.1288 26.7352 40.7385C25.1511 41.8413 23.8237 43.2854 22.861 44.9687C21.7786 46.862 21.1602 49.0529 21.1602 51.3868" stroke="black" stroke-width="2" stroke-miterlimit="10"/>
<path d="M43.029 31.3631C43.029 31.051 43.0144 30.7447 42.9823 30.4413C42.5214 25.8873 38.6764 22.334 33.9999 22.334C29.3234 22.334 25.4783 25.8873 25.0174 30.4413C24.9853 30.7447 24.9707 31.051 24.9707 31.3631C24.9707 34.7473 26.8349 37.6938 29.5889 39.24C30.8929 39.9722 32.3953 40.3894 33.9969 40.3894C35.5986 40.3894 37.1798 39.9489 38.5072 39.1816C41.2086 37.6208 43.0261 34.7035 43.0261 31.3602L43.029 31.3631Z" stroke="black" stroke-width="2" stroke-miterlimit="10"/>
</svg>
