<svg width="66" height="53" viewBox="0 0 66 53" fill="none" xmlns="http://www.w3.org/2000/svg">
<path d="M35.1239 42.5062C34.1519 44.1252 32.9355 45.5803 31.5293 46.8255C34.9427 47.6307 39.147 48.1052 43.6963 48.1052C55.1013 48.1052 64.3495 45.1202 64.3495 41.4365C64.3495 40.5508 63.8117 39.7082 62.8426 38.9375C59.7772 41.3818 52.3636 43.1044 43.6963 43.1044C40.6366 43.1044 37.735 42.8887 35.1239 42.5033V42.5062Z" stroke="black" stroke-width="2" stroke-miterlimit="10" stroke-linejoin="round"/>
<path d="M37.1265 37.7603C36.6807 39.4483 36.0021 41.0444 35.125 42.5052C37.7361 42.8905 40.6377 43.1062 43.6974 43.1062C52.3647 43.1062 59.7783 41.3808 62.8437 38.9393C63.8128 38.1658 64.3506 37.3232 64.3506 36.4404C64.3506 35.5575 63.8128 34.7121 62.8437 33.9414C59.7783 36.3857 52.3647 38.1083 43.6974 38.1083C41.3997 38.1083 39.1912 37.9875 37.1293 37.7632L37.1265 37.7603Z" stroke="black" stroke-width="2" stroke-miterlimit="10" stroke-linejoin="round"/>
<path d="M37.728 32.8216C37.728 32.905 37.7337 32.9855 37.7337 33.0661C37.7337 34.688 37.5209 36.261 37.127 37.7592C39.1917 37.9835 41.3974 38.1043 43.695 38.1043C52.3623 38.1043 59.7759 36.3789 62.8413 33.9374C63.8104 33.1638 64.3482 32.3213 64.3482 31.4384C64.3482 30.5556 63.8104 29.7101 62.8413 28.9395C59.7759 31.3838 52.3623 33.1063 43.695 33.1063C41.6188 33.1063 39.6173 33.0057 37.728 32.8216V32.8216Z" stroke="black" stroke-width="2" stroke-miterlimit="10" stroke-linejoin="round"/>
<path d="M36.9473 27.7402C37.4361 29.3506 37.7065 31.0559 37.7295 32.8215C39.6188 33.0056 41.6203 33.1062 43.6965 33.1062C52.3638 33.1062 59.7773 31.3808 62.8428 28.9393C63.8119 28.1658 64.3497 27.3232 64.3497 26.4404C64.3497 25.5575 63.8119 24.7121 62.8428 23.9414C59.7773 26.3857 52.3638 28.1083 43.6965 28.1083C41.3327 28.1083 39.0638 27.9789 36.9473 27.7431V27.7402Z" stroke="black" stroke-width="2" stroke-miterlimit="10" stroke-linejoin="round"/>
<path d="M32.668 20.406C34.6206 22.4564 36.1073 24.9582 36.947 27.739C39.0606 27.9748 41.3324 28.1042 43.6962 28.1042C52.3636 28.1042 59.7771 26.3788 62.8425 23.9374C63.8117 23.1638 64.3494 22.3212 64.3494 21.4384C64.3494 20.2249 63.3372 19.0861 61.5801 18.1055C58.0085 20.0983 51.3398 21.4384 43.6962 21.4384C39.6386 21.4384 35.8571 21.0617 32.668 20.4089V20.406Z" stroke="black" stroke-width="2" stroke-miterlimit="10" stroke-linejoin="round"/>
<path d="M64.3493 14.7704C64.3493 13.5569 63.3371 12.4181 61.5801 11.4375C58.0085 13.4304 51.3397 14.7704 43.6962 14.7704C36.0526 14.7704 29.3839 13.4304 25.8123 11.4375C24.0552 12.4181 23.043 13.5569 23.043 14.7704C23.043 14.8711 23.0516 14.9717 23.066 15.0724C26.8072 15.8373 30.1315 17.7439 32.665 20.4068C35.8542 21.0595 39.6357 21.4363 43.6933 21.4363C51.3369 21.4363 58.0056 20.0962 61.5772 18.1033C63.3342 17.1227 64.3465 15.984 64.3465 14.7704H64.3493Z" stroke="black" stroke-width="2" stroke-miterlimit="10" stroke-linejoin="round"/>
<path d="M61.5761 11.4372C63.3332 10.4566 64.3454 9.3178 64.3454 8.10427C64.3454 4.42339 55.1001 1.43555 43.6922 1.43555C32.2844 1.43555 23.0391 4.42051 23.0391 8.10427C23.0391 9.3178 24.0513 10.4566 25.8084 11.4372C29.38 13.43 36.0487 14.7701 43.6922 14.7701C51.3358 14.7701 58.0045 13.43 61.5761 11.4372V11.4372Z" stroke="black" stroke-width="2" stroke-miterlimit="10" stroke-linejoin="round"/>
<path d="M35.1229 42.5062C36 41.0453 36.6786 39.4493 37.1244 37.7613C37.5183 36.2631 37.7312 34.6901 37.7312 33.0682C37.7312 32.9848 37.7254 32.9043 37.7254 32.8238C37.7024 31.0581 37.4321 29.3528 36.9432 27.7424C36.1006 24.9616 34.6168 22.4627 32.6642 20.4094C30.1278 17.7465 26.8064 15.8399 23.0652 15.075C21.8689 14.8306 20.6323 14.7012 19.367 14.7012C9.22158 14.7012 1 22.9256 1 33.0682C1 43.2107 9.22446 51.4352 19.367 51.4352C24.0314 51.4352 28.2903 49.6925 31.5283 46.8255C32.9345 45.5803 34.1509 44.1252 35.1229 42.5062Z" stroke="black" stroke-width="2" stroke-miterlimit="10" stroke-linejoin="round"/>
<path d="M21.8313 30.4412C21.8313 30.4412 21.8486 28.3477 19.3755 28.3477C18.3172 28.3477 17.0433 28.9688 16.7845 30.0817C16.3071 32.1464 18.8032 32.7216 20.2324 33.0609C21.3252 33.3197 22.2425 34.1192 22.2425 35.3154C22.2425 37.1386 20.2525 38.1825 18.6163 37.7051C17.4861 37.3744 16.4883 36.2788 16.4883 35.0681" stroke="black" stroke-miterlimit="10" stroke-linejoin="round"/>
<path d="M19.3672 25.3398L19.3672 40.7954" stroke="black" stroke-miterlimit="10" stroke-linejoin="round"/>
</svg>
