<?xml version="1.0" encoding="UTF-8" standalone="no"?>
<!-- Created with Inkscape (http://www.inkscape.org/) -->

<svg
   version="1.1"
   id="svg2"
   xml:space="preserve"
   width="933.33331"
   height="429.37601"
   viewBox="0 0 933.33331 429.37601"
   sodipodi:docname="Rume_Logo.ai"
   xmlns:inkscape="http://www.inkscape.org/namespaces/inkscape"
   xmlns:sodipodi="http://sodipodi.sourceforge.net/DTD/sodipodi-0.dtd"
   xmlns="http://www.w3.org/2000/svg"
   xmlns:svg="http://www.w3.org/2000/svg"><defs
     id="defs6"><clipPath
       clipPathUnits="userSpaceOnUse"
       id="clipPath16"><path
         d="M 0,322.032 H 700 V 0 H 0 Z"
         id="path14" /></clipPath></defs><sodipodi:namedview
     id="namedview4"
     pagecolor="#ffffff"
     bordercolor="#666666"
     borderopacity="1.0"
     inkscape:pageshadow="2"
     inkscape:pageopacity="0.0"
     inkscape:pagecheckerboard="0" /><g
     id="g8"
     inkscape:groupmode="layer"
     inkscape:label="Rume_Logo"
     transform="matrix(1.3333333,0,0,-1.3333333,0,429.376)"><g
       id="g10"><g
         id="g12"
         clip-path="url(#clipPath16)"><g
           id="g18"
           transform="translate(151.3601,200.4359)"><path
             d="M 0,0 H -23.405 V -32.106 H 0.193 c 11.606,0 17.601,5.221 17.601,16.439 C 17.794,-5.608 12.184,0 0,0 m 57.974,-103.004 -34.376,58.712 34.376,-58.712 H 22.782 l -27.037,45.56 h -19.15 v -45.455 H -55.319 V 26.307 H 3.48 c 29.789,0 47.968,-12.185 47.968,-38.298 0,-19.147 -13.344,-30.561 -27.85,-32.301"
             style="fill:#000000;fill-opacity:1;fill-rule:nonzero;stroke:none"
             id="path20" /></g><g
           id="g22"
           transform="translate(298.7415,149.9552)"><path
             d="m 0,0 v 76.787 h 32.494 v -79.11 c 0,-36.941 -23.21,-52.416 -54.351,-52.416 -30.946,0 -54.351,15.475 -54.351,52.416 v 79.11 H -43.52 V 0 c 0,-16.829 6.188,-27.661 21.663,-27.661 C -6.383,-27.661 0,-16.829 0,0"
             style="fill:#000000;fill-opacity:1;fill-rule:nonzero;stroke:none"
             id="path24" /></g><g
           id="g26"
           transform="translate(429.8762,126.5501)"><path
             d="M 0,0 H -18.955 L -43.52,51.451 h -0.387 l 0.195,-26.498 v -53.966 h -31.141 v 129.205 h 35.009 l 30.56,-62.86 h 0.388 l 30.366,62.86 H 55.899 V -29.013 H 24.758 v 53.966 l 0.192,26.498 h -0.385 z"
             style="fill:#000000;fill-opacity:1;fill-rule:nonzero;stroke:none"
             id="path28" /></g><g
           id="g30"
           transform="translate(602.983,97.5369)"><path
             d="m 0,0 h -91.68 v 129.206 h 91.295 v -27.08 H -60.347 V 77.369 H -7.156 V 52.998 H -60.347 V 27.081 l 60.347,0 z"
             style="fill:#000000;fill-opacity:1;fill-rule:nonzero;stroke:none"
             id="path32" /></g></g></g></g></svg>
