<svg width="1440" height="450" viewBox="0 0 1440 450" fill="none" xmlns="http://www.w3.org/2000/svg">
<rect width="1440" height="450" fill="#E1BFE0"/>
<rect x="361.622" y="213" width="308" height="47" rx="10" fill="#C4FF78"/>
<rect x="983.717" y="164.47" width="195.098" height="47.5162" rx="10" fill="#3CA2F3"/>
<path d="M338.42 138.5H334.92V131.25H338.42C340.72 131.25 341.67 132.45 341.67 134.8C341.67 137.35 340.67 138.5 338.42 138.5ZM352.87 157C351.92 155.85 351.42 154.65 351.12 153.05L350.07 147.05C349.47 144.1 347.82 142.45 345.27 141.9V141.8C348.47 141.15 351.42 138.3 351.42 133.65C351.42 126.8 346.92 123.6 339.57 123.6H325.52V157H334.92V145.7H337.82C339.57 145.7 340.47 146.5 340.82 148.5L341.42 153.2C341.72 154.9 342.07 156 342.77 157H352.87ZM364.165 144.65V123.6H354.615V144.7C354.615 153.5 359.865 157.5 367.665 157.5C375.465 157.5 380.715 153.5 380.715 144.7V123.6H371.165V144.65C371.165 147.4 370.365 149.6 367.665 149.6C364.915 149.6 364.165 147.4 364.165 144.65ZM406.351 138.8H406.451L406.401 145.75V157H415.401V123.6H405.551L400.151 136.85H400.001L394.651 123.6H384.651V157H393.651V145.75L393.601 138.8H393.701L397.651 149.15H402.451L406.351 138.8ZM441.21 149.2H428.96V143.7H439.61V136.6H428.96V131.4H441.16V123.6H419.71V157H441.21V149.2ZM454.719 123.6V157H464.269V123.6H454.719ZM491.787 147.05C491.787 135.3 476.687 137.35 476.687 132.8C476.687 131.3 477.837 130.35 479.537 130.35C481.337 130.35 482.937 131.65 483.187 134L491.437 131.9C490.487 126.3 486.337 123.1 479.537 123.1C472.637 123.1 467.187 127.15 467.187 133.7C467.187 145.15 482.187 143 482.187 147.75C482.187 149.35 480.887 150.2 479.087 150.2C476.787 150.2 474.787 148.6 474.487 145.85L466.387 148.85C467.487 154.15 472.287 157.5 479.087 157.5C485.937 157.5 491.787 153.75 491.787 147.05ZM517.428 133.65H517.528L520.128 143.85H514.878L517.428 133.65ZM523.428 157H532.928L523.278 123.6H512.028L502.428 157H511.578L513.128 150.8H521.878L523.428 157ZM561.604 157V131.45H569.904V123.6H543.704V131.45H552.054V157H561.604ZM599.406 140.3C599.406 129.35 594.006 123.1 585.106 123.1C576.206 123.1 570.756 129.35 570.756 140.3C570.756 151.25 576.206 157.5 585.106 157.5C594.006 157.5 599.406 151.25 599.406 140.3ZM580.606 140.3C580.606 134 582.106 131 585.106 131C588.106 131 589.606 134 589.606 140.3C589.606 146.6 588.106 149.6 585.106 149.6C582.106 149.6 580.606 146.6 580.606 140.3ZM630.167 140.3C630.167 129.35 624.767 123.1 615.867 123.1C606.967 123.1 601.517 129.35 601.517 140.3C601.517 151.25 606.967 157.5 615.867 157.5C624.767 157.5 630.167 151.25 630.167 140.3ZM611.367 140.3C611.367 134 612.867 131 615.867 131C618.867 131 620.367 134 620.367 140.3C620.367 146.6 618.867 149.6 615.867 149.6C612.867 149.6 611.367 146.6 611.367 140.3ZM633.333 123.6V157H654.233V149.15H642.883V123.6H633.333ZM683.772 157V131.45H692.072V123.6H665.872V131.45H674.222V157H683.772ZM704.65 157V144.1H712.75V157H722.3V123.6H712.75V136.1H704.65V123.6H695.1V157H704.65ZM739.644 133.65H739.744L742.344 143.85H737.094L739.644 133.65ZM745.644 157H755.144L745.494 123.6H734.244L724.644 157H733.794L735.344 150.8H744.094L745.644 157ZM770.881 157V131.45H779.181V123.6H752.981V131.45H761.331V157H770.881ZM815.126 147.05C815.126 135.3 800.026 137.35 800.026 132.8C800.026 131.3 801.176 130.35 802.876 130.35C804.676 130.35 806.276 131.65 806.526 134L814.776 131.9C813.826 126.3 809.676 123.1 802.876 123.1C795.976 123.1 790.526 127.15 790.526 133.7C790.526 145.15 805.526 143 805.526 147.75C805.526 149.35 804.226 150.2 802.426 150.2C800.126 150.2 798.126 148.6 797.826 145.85L789.726 148.85C790.826 154.15 795.626 157.5 802.426 157.5C809.276 157.5 815.126 153.75 815.126 147.05ZM818.001 123.6V157H827.551V123.6H818.001ZM853.568 138.8H853.668L853.618 145.75V157H862.618V123.6H852.768L847.368 136.85H847.218L841.868 123.6H831.868V157H840.868V145.75L840.818 138.8H840.918L844.868 149.15H849.668L853.568 138.8ZM879.926 146.9C887.076 146.9 892.026 142.95 892.026 135.3C892.026 127.5 887.426 123.6 879.926 123.6H866.926V157H876.426V146.9H879.926ZM878.976 139.5H876.426V131.15H878.976C881.226 131.15 882.376 132.45 882.376 135.3C882.376 138.25 881.176 139.5 878.976 139.5ZM894.758 123.6V157H915.658V149.15H904.308V123.6H894.758ZM918.831 123.6V157H928.381V123.6H918.831ZM942.198 157V145.45H952.348V137.95H942.198V131.45H953.748V123.6H932.698V157H942.198ZM957.063 123.6V157H966.613V123.6H957.063ZM992.43 149.2H980.18V143.7H990.83V136.6H980.18V131.4H992.38V123.6H970.93V157H992.43V149.2ZM1019.42 147.05C1019.42 135.3 1004.32 137.35 1004.32 132.8C1004.32 131.3 1005.47 130.35 1007.17 130.35C1008.97 130.35 1010.57 131.65 1010.82 134L1019.07 131.9C1018.12 126.3 1013.97 123.1 1007.17 123.1C1000.27 123.1 994.823 127.15 994.823 133.7C994.823 145.15 1009.82 143 1009.82 147.75C1009.82 149.35 1008.52 150.2 1006.72 150.2C1004.42 150.2 1002.42 148.6 1002.12 145.85L994.023 148.85C995.123 154.15 999.923 157.5 1006.72 157.5C1013.57 157.5 1019.42 153.75 1019.42 147.05ZM1048.66 157V131.45H1056.96V123.6H1030.76V131.45H1039.11V157H1048.66ZM1069.54 157V144.1H1077.64V157H1087.19V123.6H1077.64V136.1H1069.54V123.6H1059.99V157H1069.54ZM1112.99 149.2H1100.74V143.7H1111.39V136.6H1100.74V131.4H1112.94V123.6H1091.49V157H1112.99V149.2ZM288.952 188.55H288.852L279.902 171.6H271.052V205H280.002V187.9H280.102L289.552 205H297.902V171.6H288.952V188.55ZM323.705 197.2H311.455V191.7H322.105V184.6H311.455V179.4H323.655V171.6H302.205V205H323.705V197.2ZM344.148 205V179.45H352.448V171.6H326.248V179.45H334.598V205H344.148ZM369.276 171.6L366.276 190.8H366.126L362.926 171.6H353.526L360.376 205H369.826L373.026 186.2H373.176L376.376 205H385.776L392.626 171.6H383.576L380.376 190.8H380.276L377.176 171.6H369.276ZM421.598 188.3C421.598 177.35 416.198 171.1 407.298 171.1C398.398 171.1 392.948 177.35 392.948 188.3C392.948 199.25 398.398 205.5 407.298 205.5C416.198 205.5 421.598 199.25 421.598 188.3ZM402.798 188.3C402.798 182 404.298 179 407.298 179C410.298 179 411.798 182 411.798 188.3C411.798 194.6 410.298 197.6 407.298 197.6C404.298 197.6 402.798 194.6 402.798 188.3ZM437.663 186.5H434.163V179.25H437.663C439.963 179.25 440.913 180.45 440.913 182.8C440.913 185.35 439.913 186.5 437.663 186.5ZM452.113 205C451.163 203.85 450.663 202.65 450.363 201.05L449.313 195.05C448.713 192.1 447.063 190.45 444.513 189.9V189.8C447.713 189.15 450.663 186.3 450.663 181.65C450.663 174.8 446.163 171.6 438.813 171.6H424.763V205H434.163V193.7H437.063C438.813 193.7 439.713 194.5 440.063 196.5L440.663 201.2C440.963 202.9 441.313 204 442.013 205H452.113ZM482.4 205L473.95 187.85L481.75 171.6H471.35L465.7 184.1H464.05V171.6H454.5V205H464.05V192.1H465.6L471.6 205H482.4ZM484.382 171.6V205H493.932V171.6H484.382ZM516.15 188.55H516.05L507.1 171.6H498.25V205H507.2V187.9H507.3L516.75 205H525.1V171.6H516.15V188.55ZM543.102 186.7V192.95H546.702V193.8C546.702 196.35 545.302 197.75 542.952 197.75C539.502 197.75 538.052 194.35 538.052 188.75C538.052 182.1 540.052 179.2 542.852 179.2C545.352 179.2 546.352 181.3 546.652 184L555.652 181.1C554.502 174.95 549.802 171.1 543.002 171.1C534.102 171.1 528.202 177.7 528.202 188.75C528.202 199.35 533.702 205.5 541.002 205.5C544.552 205.5 547.552 204.05 548.752 201.55L549.752 205H556.002V186.7H543.102ZM582.734 194.9C589.884 194.9 594.834 190.95 594.834 183.3C594.834 175.5 590.234 171.6 582.734 171.6H569.734V205H579.234V194.9H582.734ZM581.784 187.5H579.234V179.15H581.784C584.034 179.15 585.184 180.45 585.184 183.3C585.184 186.25 583.984 187.5 581.784 187.5ZM610.466 186.5H606.966V179.25H610.466C612.766 179.25 613.716 180.45 613.716 182.8C613.716 185.35 612.716 186.5 610.466 186.5ZM624.916 205C623.966 203.85 623.466 202.65 623.166 201.05L622.116 195.05C621.516 192.1 619.866 190.45 617.316 189.9V189.8C620.516 189.15 623.466 186.3 623.466 181.65C623.466 174.8 618.966 171.6 611.616 171.6H597.566V205H606.966V193.7H609.866C611.616 193.7 612.516 194.5 612.866 196.5L613.466 201.2C613.766 202.9 614.116 204 614.816 205H624.916ZM654.557 188.3C654.557 177.35 649.157 171.1 640.257 171.1C631.357 171.1 625.907 177.35 625.907 188.3C625.907 199.25 631.357 205.5 640.257 205.5C649.157 205.5 654.557 199.25 654.557 188.3ZM635.757 188.3C635.757 182 637.257 179 640.257 179C643.257 179 644.757 182 644.757 188.3C644.757 194.6 643.257 197.6 640.257 197.6C637.257 197.6 635.757 194.6 635.757 188.3ZM670.969 205.5C677.619 205.5 682.069 201.65 683.169 195.5L674.519 192.45C674.269 195.15 673.319 197.45 670.919 197.45C668.269 197.45 666.519 194.7 666.519 188.3C666.519 181.9 668.269 179.2 670.919 179.2C673.269 179.2 674.219 181.4 674.469 184.1L683.169 181C682.069 174.9 677.569 171.1 670.969 171.1C662.119 171.1 656.669 177.3 656.669 188.3C656.669 199.3 662.119 205.5 670.969 205.5ZM707.25 197.2H695V191.7H705.65V184.6H695V179.4H707.2V171.6H685.75V205H707.25V197.2ZM734.243 195.05C734.243 183.3 719.143 185.35 719.143 180.8C719.143 179.3 720.293 178.35 721.993 178.35C723.793 178.35 725.393 179.65 725.643 182L733.893 179.9C732.943 174.3 728.793 171.1 721.993 171.1C715.093 171.1 709.643 175.15 709.643 181.7C709.643 193.15 724.643 191 724.643 195.75C724.643 197.35 723.343 198.2 721.543 198.2C719.243 198.2 717.243 196.6 716.943 193.85L708.843 196.85C709.943 202.15 714.743 205.5 721.543 205.5C728.393 205.5 734.243 201.75 734.243 195.05ZM760.512 195.05C760.512 183.3 745.412 185.35 745.412 180.8C745.412 179.3 746.562 178.35 748.262 178.35C750.062 178.35 751.662 179.65 751.912 182L760.162 179.9C759.212 174.3 755.062 171.1 748.262 171.1C741.362 171.1 735.912 175.15 735.912 181.7C735.912 193.15 750.912 191 750.912 195.75C750.912 197.35 749.612 198.2 747.812 198.2C745.512 198.2 743.512 196.6 743.212 193.85L735.112 196.85C736.212 202.15 741.012 205.5 747.812 205.5C754.662 205.5 760.512 201.75 760.512 195.05ZM791.903 187.9C795.053 187.15 797.103 184.6 797.103 180.45C797.103 175 793.653 171.6 787.103 171.6H773.103V205H787.003C794.703 205 798.253 201.2 798.253 195.75C798.253 191.65 796.003 188.75 791.903 188V187.9ZM782.253 178.75H785.003C787.053 178.75 787.953 179.85 787.953 182.05C787.953 184.25 787.003 185.3 784.953 185.3H782.253V178.75ZM782.253 191.25H785.553C787.703 191.25 788.653 192.45 788.653 194.55C788.653 196.75 787.803 197.9 785.553 197.9H782.253V191.25ZM822.63 197.2H810.38V191.7H821.03V184.6H810.38V179.4H822.58V171.6H801.13V205H822.63V197.2ZM843.073 205V179.45H851.373V171.6H825.173V179.45H833.523V205H843.073ZM868.202 171.6L865.202 190.8H865.052L861.852 171.6H852.452L859.302 205H868.752L871.952 186.2H872.102L875.302 205H884.702L891.552 171.6H882.502L879.302 190.8H879.202L876.102 171.6H868.202ZM915.404 197.2H903.154V191.7H913.804V184.6H903.154V179.4H915.354V171.6H893.904V205H915.404V197.2ZM940.697 197.2H928.447V191.7H939.097V184.6H928.447V179.4H940.647V171.6H919.197V205H940.697V197.2ZM962.39 188.55H962.29L953.34 171.6H944.49V205H953.44V187.9H953.54L962.99 205H971.34V171.6H962.39V188.55ZM1013.88 187.9C1017.03 187.15 1019.08 184.6 1019.08 180.45C1019.08 175 1015.63 171.6 1009.08 171.6H995.076V205H1008.98C1016.68 205 1020.23 201.2 1020.23 195.75C1020.23 191.65 1017.98 188.75 1013.88 188V187.9ZM1004.23 178.75H1006.98C1009.03 178.75 1009.93 179.85 1009.93 182.05C1009.93 184.25 1008.98 185.3 1006.93 185.3H1004.23V178.75ZM1004.23 191.25H1007.53C1009.68 191.25 1010.63 192.45 1010.63 194.55C1010.63 196.75 1009.78 197.9 1007.53 197.9H1004.23V191.25ZM1036 186.5H1032.5V179.25H1036C1038.3 179.25 1039.25 180.45 1039.25 182.8C1039.25 185.35 1038.25 186.5 1036 186.5ZM1050.45 205C1049.5 203.85 1049 202.65 1048.7 201.05L1047.65 195.05C1047.05 192.1 1045.4 190.45 1042.85 189.9V189.8C1046.05 189.15 1049 186.3 1049 181.65C1049 174.8 1044.5 171.6 1037.15 171.6H1023.1V205H1032.5V193.7H1035.4C1037.15 193.7 1038.05 194.5 1038.4 196.5L1039 201.2C1039.3 202.9 1039.65 204 1040.35 205H1050.45ZM1065.89 181.65H1065.99L1068.59 191.85H1063.34L1065.89 181.65ZM1071.89 205H1081.39L1071.74 171.6H1060.49L1050.89 205H1060.04L1061.59 198.8H1070.34L1071.89 205ZM1101.6 188.55H1101.5L1092.55 171.6H1083.7V205H1092.65V187.9H1092.75L1102.2 205H1110.55V171.6H1101.6V188.55ZM1114.85 205H1126.85C1136.1 205 1141.95 199.5 1141.95 188.3C1141.95 177.05 1136.15 171.6 1126.85 171.6H1114.85V205ZM1124.35 179.5H1126.5C1130.1 179.5 1132.1 182.05 1132.1 188.3C1132.1 194.5 1130.1 197.1 1126.45 197.1H1124.35V179.5ZM1168.37 195.05C1168.37 183.3 1153.27 185.35 1153.27 180.8C1153.27 179.3 1154.42 178.35 1156.12 178.35C1157.92 178.35 1159.52 179.65 1159.77 182L1168.02 179.9C1167.07 174.3 1162.92 171.1 1156.12 171.1C1149.22 171.1 1143.77 175.15 1143.77 181.7C1143.77 193.15 1158.77 191 1158.77 195.75C1158.77 197.35 1157.47 198.2 1155.67 198.2C1153.37 198.2 1151.37 196.6 1151.07 193.85L1142.97 196.85C1144.07 202.15 1148.87 205.5 1155.67 205.5C1162.52 205.5 1168.37 201.75 1168.37 195.05ZM276.119 229.65H276.219L278.819 239.85H273.569L276.119 229.65ZM282.119 253H291.619L281.969 219.6H270.719L261.119 253H270.269L271.819 246.8H280.569L282.119 253ZM311.828 236.55H311.728L302.778 219.6H293.928V253H302.878V235.9H302.978L312.428 253H320.778V219.6H311.828V236.55ZM325.081 253H337.081C346.331 253 352.181 247.5 352.181 236.3C352.181 225.05 346.381 219.6 337.081 219.6H325.081V253ZM334.581 227.5H336.731C340.331 227.5 342.331 230.05 342.331 236.3C342.331 242.5 340.331 245.1 336.681 245.1H334.581V227.5ZM374.69 219.6V253H384.24V219.6H374.69ZM406.457 236.55H406.357L397.407 219.6H388.557V253H397.507V235.9H397.607L407.057 253H415.407V219.6H406.457V236.55ZM429.21 253V241.45H439.36V233.95H429.21V227.45H440.76V219.6H419.71V253H429.21ZM444.075 219.6V253H464.975V245.15H453.625V219.6H444.075ZM476.665 240.65V219.6H467.115V240.7C467.115 249.5 472.365 253.5 480.165 253.5C487.965 253.5 493.215 249.5 493.215 240.7V219.6H483.665V240.65C483.665 243.4 482.865 245.6 480.165 245.6C477.415 245.6 476.665 243.4 476.665 240.65ZM518.651 245.2H506.401V239.7H517.051V232.6H506.401V227.4H518.601V219.6H497.151V253H518.651V245.2ZM540.344 236.55H540.244L531.294 219.6H522.444V253H531.394V235.9H531.494L540.944 253H549.294V219.6H540.344V236.55ZM566.696 253.5C573.346 253.5 577.796 249.65 578.896 243.5L570.246 240.45C569.996 243.15 569.046 245.45 566.646 245.45C563.996 245.45 562.246 242.7 562.246 236.3C562.246 229.9 563.996 227.2 566.646 227.2C568.996 227.2 569.946 229.4 570.196 232.1L578.896 229C577.796 222.9 573.296 219.1 566.696 219.1C557.846 219.1 552.396 225.3 552.396 236.3C552.396 247.3 557.846 253.5 566.696 253.5ZM602.977 245.2H590.727V239.7H601.377V232.6H590.727V227.4H602.927V219.6H581.477V253H602.977V245.2ZM619.67 234.5H616.17V227.25H619.67C621.97 227.25 622.92 228.45 622.92 230.8C622.92 233.35 621.92 234.5 619.67 234.5ZM634.12 253C633.17 251.85 632.67 250.65 632.37 249.05L631.32 243.05C630.72 240.1 629.07 238.45 626.52 237.9V237.8C629.72 237.15 632.67 234.3 632.67 229.65C632.67 222.8 628.17 219.6 620.82 219.6H606.77V253H616.17V241.7H619.07C620.82 241.7 621.72 242.5 622.07 244.5L622.67 249.2C622.97 250.9 623.32 252 624.02 253H634.12ZM659.706 243.05C659.706 231.3 644.606 233.35 644.606 228.8C644.606 227.3 645.756 226.35 647.456 226.35C649.256 226.35 650.856 227.65 651.106 230L659.356 227.9C658.406 222.3 654.256 219.1 647.456 219.1C640.556 219.1 635.106 223.15 635.106 229.7C635.106 241.15 650.106 239 650.106 243.75C650.106 245.35 648.806 246.2 647.006 246.2C644.706 246.2 642.706 244.6 642.406 241.85L634.306 244.85C635.406 250.15 640.206 253.5 647.006 253.5C653.856 253.5 659.706 249.75 659.706 243.05ZM700.814 235.9C703.964 235.15 706.014 232.6 706.014 228.45C706.014 223 702.564 219.6 696.014 219.6H682.014V253H695.914C703.614 253 707.164 249.2 707.164 243.75C707.164 239.65 704.914 236.75 700.814 236V235.9ZM691.164 226.75H693.914C695.964 226.75 696.864 227.85 696.864 230.05C696.864 232.25 695.914 233.3 693.864 233.3H691.164V226.75ZM691.164 239.25H694.464C696.614 239.25 697.564 240.45 697.564 242.55C697.564 244.75 696.714 245.9 694.464 245.9H691.164V239.25ZM720.983 230.8L716.433 219.6H706.383L716.183 241.35V253H725.583V241.35L735.383 219.6H725.683L721.133 230.8H720.983ZM761.095 234.7V240.95H764.695V241.8C764.695 244.35 763.295 245.75 760.945 245.75C757.495 245.75 756.045 242.35 756.045 236.75C756.045 230.1 758.045 227.2 760.845 227.2C763.345 227.2 764.345 229.3 764.645 232L773.645 229.1C772.495 222.95 767.795 219.1 760.995 219.1C752.095 219.1 746.195 225.7 746.195 236.75C746.195 247.35 751.695 253.5 758.995 253.5C762.545 253.5 765.545 252.05 766.745 249.55L767.745 253H773.995V234.7H761.095ZM778.01 219.6V253H787.56V219.6H778.01ZM804.928 239.9H804.828L799.828 219.6H789.928L799.728 253H809.678L819.428 219.6H809.678L804.928 239.9ZM821.76 219.6V253H831.31V219.6H821.76ZM853.528 236.55H853.428L844.478 219.6H835.628V253H844.578V235.9H844.678L854.128 253H862.478V219.6H853.528V236.55ZM880.48 234.7V240.95H884.08V241.8C884.08 244.35 882.68 245.75 880.33 245.75C876.88 245.75 875.43 242.35 875.43 236.75C875.43 230.1 877.43 227.2 880.23 227.2C882.73 227.2 883.73 229.3 884.03 232L893.03 229.1C891.88 222.95 887.18 219.1 880.38 219.1C871.48 219.1 865.58 225.7 865.58 236.75C865.58 247.35 871.08 253.5 878.38 253.5C881.93 253.5 884.93 252.05 886.13 249.55L887.13 253H893.38V234.7H880.48ZM928.612 245.2H916.362V239.7H927.012V232.6H916.362V227.4H928.562V219.6H907.112V253H928.612V245.2ZM945.455 229.65H945.555L948.155 239.85H942.905L945.455 229.65ZM951.455 253H960.955L951.305 219.6H940.055L930.455 253H939.605L941.155 246.8H949.905L951.455 253ZM974.899 253.5C981.549 253.5 985.999 249.65 987.099 243.5L978.449 240.45C978.199 243.15 977.249 245.45 974.849 245.45C972.199 245.45 970.449 242.7 970.449 236.3C970.449 229.9 972.199 227.2 974.849 227.2C977.199 227.2 978.149 229.4 978.399 232.1L987.099 229C985.999 222.9 981.499 219.1 974.899 219.1C966.049 219.1 960.599 225.3 960.599 236.3C960.599 247.3 966.049 253.5 974.899 253.5ZM999.23 253V240.1H1007.33V253H1016.88V219.6H1007.33V232.1H999.23V219.6H989.68V253H999.23ZM1044.59 234.7V240.95H1048.19V241.8C1048.19 244.35 1046.79 245.75 1044.44 245.75C1040.99 245.75 1039.54 242.35 1039.54 236.75C1039.54 230.1 1041.54 227.2 1044.34 227.2C1046.84 227.2 1047.84 229.3 1048.14 232L1057.14 229.1C1055.99 222.95 1051.29 219.1 1044.49 219.1C1035.59 219.1 1029.69 225.7 1029.69 236.75C1029.69 247.35 1035.19 253.5 1042.49 253.5C1046.04 253.5 1049.04 252.05 1050.24 249.55L1051.24 253H1057.49V234.7H1044.59ZM1074.41 234.5H1070.91V227.25H1074.41C1076.71 227.25 1077.66 228.45 1077.66 230.8C1077.66 233.35 1076.66 234.5 1074.41 234.5ZM1088.86 253C1087.91 251.85 1087.41 250.65 1087.11 249.05L1086.06 243.05C1085.46 240.1 1083.81 238.45 1081.26 237.9V237.8C1084.46 237.15 1087.41 234.3 1087.41 229.65C1087.41 222.8 1082.91 219.6 1075.56 219.6H1061.51V253H1070.91V241.7H1073.81C1075.56 241.7 1076.46 242.5 1076.81 244.5L1077.41 249.2C1077.71 250.9 1078.06 252 1078.76 253H1088.86ZM1118.5 236.3C1118.5 225.35 1113.1 219.1 1104.2 219.1C1095.3 219.1 1089.85 225.35 1089.85 236.3C1089.85 247.25 1095.3 253.5 1104.2 253.5C1113.1 253.5 1118.5 247.25 1118.5 236.3ZM1099.7 236.3C1099.7 230 1101.2 227 1104.2 227C1107.2 227 1108.7 230 1108.7 236.3C1108.7 242.6 1107.2 245.6 1104.2 245.6C1101.2 245.6 1099.7 242.6 1099.7 236.3ZM1130.91 240.65V219.6H1121.36V240.7C1121.36 249.5 1126.61 253.5 1134.41 253.5C1142.21 253.5 1147.46 249.5 1147.46 240.7V219.6H1137.91V240.65C1137.91 243.4 1137.11 245.6 1134.41 245.6C1131.66 245.6 1130.91 243.4 1130.91 240.65ZM1164.4 242.9C1171.55 242.9 1176.5 238.95 1176.5 231.3C1176.5 223.5 1171.9 219.6 1164.4 219.6H1151.4V253H1160.9V242.9H1164.4ZM1163.45 235.5H1160.9V227.15H1163.45C1165.7 227.15 1166.85 228.45 1166.85 231.3C1166.85 234.25 1165.65 235.5 1163.45 235.5ZM347.713 301H359.713C368.963 301 374.813 295.5 374.813 284.3C374.813 273.05 369.013 267.6 359.713 267.6H347.713V301ZM357.213 275.5H359.363C362.963 275.5 364.963 278.05 364.963 284.3C364.963 290.5 362.963 293.1 359.313 293.1H357.213V275.5ZM377.888 267.6V301H387.438V267.6H377.888ZM404.655 282.5H401.155V275.25H404.655C406.955 275.25 407.905 276.45 407.905 278.8C407.905 281.35 406.905 282.5 404.655 282.5ZM419.105 301C418.155 299.85 417.655 298.65 417.355 297.05L416.305 291.05C415.705 288.1 414.055 286.45 411.505 285.9V285.8C414.705 285.15 417.655 282.3 417.655 277.65C417.655 270.8 413.155 267.6 405.805 267.6H391.755V301H401.155V289.7H404.055C405.805 289.7 406.705 290.5 407.055 292.5L407.655 297.2C407.955 298.9 408.305 300 409.005 301H419.105ZM442.992 293.2H430.742V287.7H441.392V280.6H430.742V275.4H442.942V267.6H421.492V301H442.992V293.2ZM459.396 301.5C466.046 301.5 470.496 297.65 471.596 291.5L462.946 288.45C462.696 291.15 461.746 293.45 459.346 293.45C456.696 293.45 454.946 290.7 454.946 284.3C454.946 277.9 456.696 275.2 459.346 275.2C461.696 275.2 462.646 277.4 462.896 280.1L471.596 277C470.496 270.9 465.996 267.1 459.396 267.1C450.546 267.1 445.096 273.3 445.096 284.3C445.096 295.3 450.546 301.5 459.396 301.5ZM490.876 301V275.45H499.176V267.6H472.976V275.45H481.326V301H490.876ZM533.421 293.2H521.171V287.7H531.821V280.6H521.171V275.4H533.371V267.6H511.921V301H533.421V293.2ZM554.664 301H564.764L555.714 283.75L564.164 267.6H554.364L550.214 276.4H550.064L545.914 267.6H535.714L544.264 283.9L535.164 301H545.014L549.764 291.5H549.914L554.664 301ZM580 290.9C587.15 290.9 592.1 286.95 592.1 279.3C592.1 271.5 587.5 267.6 580 267.6H567V301H576.5V290.9H580ZM579.05 283.5H576.5V275.15H579.05C581.3 275.15 582.45 276.45 582.45 279.3C582.45 282.25 581.25 283.5 579.05 283.5ZM622.575 284.3C622.575 273.35 617.175 267.1 608.275 267.1C599.375 267.1 593.925 273.35 593.925 284.3C593.925 295.25 599.375 301.5 608.275 301.5C617.175 301.5 622.575 295.25 622.575 284.3ZM603.775 284.3C603.775 278 605.275 275 608.275 275C611.275 275 612.775 278 612.775 284.3C612.775 290.6 611.275 293.6 608.275 293.6C605.275 293.6 603.775 290.6 603.775 284.3ZM649.086 291.05C649.086 279.3 633.986 281.35 633.986 276.8C633.986 275.3 635.136 274.35 636.836 274.35C638.636 274.35 640.236 275.65 640.486 278L648.736 275.9C647.786 270.3 643.636 267.1 636.836 267.1C629.936 267.1 624.486 271.15 624.486 277.7C624.486 289.15 639.486 287 639.486 291.75C639.486 293.35 638.186 294.2 636.386 294.2C634.086 294.2 632.086 292.6 631.786 289.85L623.686 292.85C624.786 298.15 629.586 301.5 636.386 301.5C643.236 301.5 649.086 297.75 649.086 291.05ZM661.211 288.65V267.6H651.661V288.7C651.661 297.5 656.911 301.5 664.711 301.5C672.511 301.5 677.761 297.5 677.761 288.7V267.6H668.211V288.65C668.211 291.4 667.411 293.6 664.711 293.6C661.961 293.6 661.211 291.4 661.211 288.65ZM694.597 282.5H691.097V275.25H694.597C696.897 275.25 697.847 276.45 697.847 278.8C697.847 281.35 696.847 282.5 694.597 282.5ZM709.047 301C708.097 299.85 707.597 298.65 707.297 297.05L706.247 291.05C705.647 288.1 703.997 286.45 701.447 285.9V285.8C704.647 285.15 707.597 282.3 707.597 277.65C707.597 270.8 703.097 267.6 695.747 267.6H681.697V301H691.097V289.7H693.997C695.747 289.7 696.647 290.5 696.997 292.5L697.597 297.2C697.897 298.9 698.247 300 698.947 301H709.047ZM732.933 293.2H720.683V287.7H731.333V280.6H720.683V275.4H732.883V267.6H711.433V301H732.933V293.2ZM763.093 301V275.45H771.393V267.6H745.193V275.45H753.543V301H763.093ZM800.895 284.3C800.895 273.35 795.495 267.1 786.595 267.1C777.695 267.1 772.245 273.35 772.245 284.3C772.245 295.25 777.695 301.5 786.595 301.5C795.495 301.5 800.895 295.25 800.895 284.3ZM782.095 284.3C782.095 278 783.595 275 786.595 275C789.595 275 791.095 278 791.095 284.3C791.095 290.6 789.595 293.6 786.595 293.6C783.595 293.6 782.095 290.6 782.095 284.3ZM835.277 293.2H823.027V287.7H833.677V280.6H823.027V275.4H835.227V267.6H813.777V301H835.277V293.2ZM852.12 277.65H852.22L854.82 287.85H849.57L852.12 277.65ZM858.12 301H867.62L857.97 267.6H846.72L837.12 301H846.27L847.82 294.8H856.57L858.12 301ZM881.564 301.5C888.214 301.5 892.664 297.65 893.764 291.5L885.114 288.45C884.864 291.15 883.914 293.45 881.514 293.45C878.864 293.45 877.114 290.7 877.114 284.3C877.114 277.9 878.864 275.2 881.514 275.2C883.864 275.2 884.814 277.4 885.064 280.1L893.764 277C892.664 270.9 888.164 267.1 881.564 267.1C872.714 267.1 867.264 273.3 867.264 284.3C867.264 295.3 872.714 301.5 881.564 301.5ZM905.895 301V288.1H913.995V301H923.545V267.6H913.995V280.1H905.895V267.6H896.345V301H905.895ZM965.006 284.3C965.006 273.35 959.606 267.1 950.706 267.1C941.806 267.1 936.356 273.35 936.356 284.3C936.356 295.25 941.806 301.5 950.706 301.5C959.606 301.5 965.006 295.25 965.006 284.3ZM946.206 284.3C946.206 278 947.706 275 950.706 275C953.706 275 955.206 278 955.206 284.3C955.206 290.6 953.706 293.6 950.706 293.6C947.706 293.6 946.206 290.6 946.206 284.3ZM983.845 301V275.45H992.145V267.6H965.945V275.45H974.295V301H983.845ZM1004.72 301V288.1H1012.82V301H1022.37V267.6H1012.82V280.1H1004.72V267.6H995.173V301H1004.72ZM1048.17 293.2H1035.92V287.7H1046.57V280.6H1035.92V275.4H1048.12V267.6H1026.67V301H1048.17V293.2ZM1064.86 282.5H1061.36V275.25H1064.86C1067.16 275.25 1068.11 276.45 1068.11 278.8C1068.11 281.35 1067.11 282.5 1064.86 282.5ZM1079.31 301C1078.36 299.85 1077.86 298.65 1077.56 297.05L1076.51 291.05C1075.91 288.1 1074.26 286.45 1071.71 285.9V285.8C1074.91 285.15 1077.86 282.3 1077.86 277.65C1077.86 270.8 1073.36 267.6 1066.01 267.6H1051.96V301H1061.36V289.7H1064.26C1066.01 289.7 1066.91 290.5 1067.26 292.5L1067.86 297.2C1068.16 298.9 1068.51 300 1069.21 301H1079.31ZM1086 291.05C1083 291.05 1080.8 293.35 1080.8 296.25C1080.8 299.15 1083 301.45 1086 301.45C1089 301.45 1091.2 299.15 1091.2 296.25C1091.2 293.35 1089 291.05 1086 291.05Z" fill="black"/>
</svg>
