<svg width="1136" height="311" viewBox="0 0 1136 311" fill="none" xmlns="http://www.w3.org/2000/svg">
<path d="M81.8088 100.712L58.9938 54.4069L80.0538 10.5319H51.9738L36.7188 44.2819H32.2638V10.5319H6.47883V100.712H32.2638V65.8819H36.4488L52.6488 100.712H81.8088ZM87.1624 10.5319V100.712H112.947V10.5319H87.1624ZM159.974 102.062C177.929 102.062 189.944 91.6669 192.914 75.0619L169.559 66.8269C168.884 74.1169 166.319 80.3269 159.839 80.3269C152.684 80.3269 147.959 72.9019 147.959 55.6219C147.959 38.3419 152.684 31.0519 159.839 31.0519C166.184 31.0519 168.749 36.9919 169.424 44.2819L192.914 35.9119C189.944 19.4419 177.794 9.18195 159.974 9.18195C136.079 9.18195 121.364 25.9219 121.364 55.6219C121.364 85.3219 136.079 102.062 159.974 102.062ZM275.212 100.712L252.397 54.4069L273.457 10.5319H245.377L230.122 44.2819H225.667V10.5319H199.882V100.712H225.667V65.8819H229.852L246.052 100.712H275.212ZM369.441 73.8469C369.441 42.1219 328.671 47.6569 328.671 35.3719C328.671 31.3219 331.776 28.7569 336.366 28.7569C341.226 28.7569 345.546 32.2669 346.221 38.6119L368.496 32.9419C365.931 17.8219 354.726 9.18195 336.366 9.18195C317.736 9.18195 303.021 20.117 303.021 37.8019C303.021 68.7169 343.521 62.9119 343.521 75.7369C343.521 80.0569 340.011 82.3519 335.151 82.3519C328.941 82.3519 323.541 78.0319 322.731 70.6069L300.861 78.7069C303.831 93.0169 316.791 102.062 335.151 102.062C353.646 102.062 369.441 91.9369 369.441 73.8469ZM420.574 100.712V31.7269H442.984V10.5319H372.244V31.7269H394.789V100.712H420.574ZM477.695 37.6669H477.965L484.985 65.2069H470.81L477.695 37.6669ZM493.895 100.712H519.545L493.49 10.5319H463.115L437.195 100.712H461.9L466.085 83.9719H489.71L493.895 100.712ZM560.61 50.7619H551.16V31.1869H560.61C566.82 31.1869 569.385 34.4269 569.385 40.7719C569.385 47.6569 566.685 50.7619 560.61 50.7619ZM599.625 100.712C597.06 97.6069 595.71 94.3669 594.9 90.0469L592.065 73.8469C590.445 65.8819 585.99 61.4269 579.105 59.9419V59.6719C587.745 57.9169 595.71 50.2219 595.71 37.6669C595.71 19.1719 583.56 10.5319 563.715 10.5319H525.78V100.712H551.16V70.2019H558.99C563.715 70.2019 566.145 72.3619 567.09 77.7619L568.71 90.4519C569.52 95.0419 570.465 98.0119 572.355 100.712H599.625ZM649.31 100.712V31.7269H671.72V10.5319H600.98V31.7269H623.525V100.712H649.31ZM845.228 40.7719L832.943 10.5319H805.808L832.268 69.2569V100.712H857.648V69.2569L884.108 10.5319H857.918L845.633 40.7719H845.228ZM957.302 55.6219C957.302 26.0569 942.722 9.18195 918.692 9.18195C894.662 9.18195 879.947 26.0569 879.947 55.6219C879.947 85.1869 894.662 102.062 918.692 102.062C942.722 102.062 957.302 85.1869 957.302 55.6219ZM906.542 55.6219C906.542 38.6119 910.592 30.5119 918.692 30.5119C926.792 30.5119 930.842 38.6119 930.842 55.6219C930.842 72.6319 926.792 80.7319 918.692 80.7319C910.592 80.7319 906.542 72.6319 906.542 55.6219ZM990.824 67.3669V10.5319H965.039V67.5019C965.039 91.2619 979.214 102.062 1000.27 102.062C1021.33 102.062 1035.51 91.2619 1035.51 67.5019V10.5319H1009.72V67.3669C1009.72 74.7919 1007.56 80.7319 1000.27 80.7319C992.849 80.7319 990.824 74.7919 990.824 67.3669ZM1080.97 50.7619H1071.52V31.1869H1080.97C1087.18 31.1869 1089.74 34.4269 1089.74 40.7719C1089.74 47.6569 1087.04 50.7619 1080.97 50.7619ZM1119.98 100.712C1117.42 97.6069 1116.07 94.3669 1115.26 90.0469L1112.42 73.8469C1110.8 65.8819 1106.35 61.4269 1099.46 59.9419V59.6719C1108.1 57.9169 1116.07 50.2219 1116.07 37.6669C1116.07 19.1719 1103.92 10.5319 1084.07 10.5319H1046.14V100.712H1071.52V70.2019H1079.35C1084.07 70.2019 1086.5 72.3619 1087.45 77.7619L1089.07 90.4519C1089.88 95.0419 1090.82 98.0119 1092.71 100.712H1119.98ZM54.8088 160.297H54.5388L30.3738 114.532H6.47883V204.712H30.6438V158.542H30.9138L56.4288 204.712H78.9738V114.532H54.8088V160.297ZM148.64 183.652H115.565V168.802H144.32V149.632H115.565V135.592H148.505V114.532H90.5901V204.712H148.64V183.652ZM205.996 204.712H233.266L208.831 158.137L231.646 114.532H205.186L193.981 138.292H193.576L182.371 114.532H154.831L177.916 158.542L153.346 204.712H179.941L192.766 179.062H193.171L205.996 204.712ZM283.201 204.712V135.727H305.611V114.532H234.871V135.727H257.416V204.712H283.201ZM454.1 206.062C472.055 206.062 484.07 195.667 487.04 179.062L463.685 170.827C463.01 178.117 460.445 184.327 453.965 184.327C446.81 184.327 442.085 176.902 442.085 159.622C442.085 142.342 446.81 135.052 453.965 135.052C460.31 135.052 462.875 140.992 463.55 148.282L487.04 139.912C484.07 123.442 471.92 113.182 454.1 113.182C430.205 113.182 415.49 129.922 415.49 159.622C415.49 189.322 430.205 206.062 454.1 206.062ZM527.529 141.667H527.799L534.819 169.207H520.644L527.529 141.667ZM543.729 204.712H569.379L543.324 114.532H512.949L487.029 204.712H511.734L515.919 187.972H539.544L543.729 204.712ZM634.204 155.572H634.474L634.339 174.337V204.712H658.639V114.532H632.044L617.464 150.307H617.059L602.614 114.532H575.614V204.712H599.914V174.337L599.779 155.572H600.049L610.714 183.517H623.674L634.204 155.572ZM705.372 177.442C724.677 177.442 738.042 166.777 738.042 146.122C738.042 125.062 725.622 114.532 705.372 114.532H670.272V204.712H695.922V177.442H705.372ZM702.807 157.462H695.922V134.917H702.807C708.882 134.917 711.987 138.427 711.987 146.122C711.987 154.087 708.747 157.462 702.807 157.462ZM773.271 141.667H773.541L780.561 169.207H766.386L773.271 141.667ZM789.471 204.712H815.121L789.066 114.532H758.691L732.771 204.712H757.476L761.661 187.972H785.286L789.471 204.712ZM821.356 114.532V204.712H847.141V114.532H821.356ZM895.788 155.302V172.177H905.508V174.472C905.508 181.357 901.728 185.137 895.383 185.137C886.068 185.137 882.153 175.957 882.153 160.837C882.153 142.882 887.553 135.052 895.113 135.052C901.863 135.052 904.563 140.722 905.373 148.012L929.673 140.182C926.568 123.577 913.878 113.182 895.518 113.182C871.488 113.182 855.558 131.002 855.558 160.837C855.558 189.457 870.408 206.062 890.118 206.062C899.703 206.062 907.803 202.147 911.043 195.397L913.743 204.712H930.618V155.302H895.788ZM989.789 160.297H989.519L965.354 114.532H941.459V204.712H965.624V158.542H965.894L991.409 204.712H1013.95V114.532H989.789V160.297ZM602.376 308.712V239.727H624.786V218.532H554.046V239.727H576.591V308.712H602.376ZM704.441 263.622C704.441 234.057 689.861 217.182 665.831 217.182C641.801 217.182 627.086 234.057 627.086 263.622C627.086 293.187 641.801 310.062 665.831 310.062C689.861 310.062 704.441 293.187 704.441 263.622ZM653.681 263.622C653.681 246.612 657.731 238.512 665.831 238.512C673.931 238.512 677.981 246.612 677.981 263.622C677.981 280.632 673.931 288.732 665.831 288.732C657.731 288.732 653.681 280.632 653.681 263.622ZM712.987 308.712H745.387C770.362 308.712 786.157 293.862 786.157 263.622C786.157 233.247 770.497 218.532 745.387 218.532H712.987V308.712ZM738.637 239.862H744.442C754.162 239.862 759.562 246.747 759.562 263.622C759.562 280.362 754.162 287.382 744.307 287.382H738.637V239.862ZM825.742 245.667H826.012L833.032 273.207H818.857L825.742 245.667ZM841.942 308.712H867.592L841.537 218.532H811.162L785.242 308.712H809.947L814.132 291.972H837.757L841.942 308.712ZM897.435 248.772L885.15 218.532H858.015L884.475 277.257V308.712H909.855V277.257L936.315 218.532H910.125L897.84 248.772H897.435ZM938.04 281.847C929.94 281.847 924 288.057 924 295.887C924 303.717 929.94 309.927 938.04 309.927C946.14 309.927 952.08 303.717 952.08 295.887C952.08 288.057 946.14 281.847 938.04 281.847Z" fill="black"/>
<rect x="683.477" y="10.874" width="113.016" height="89.8387" rx="10" fill="white"/>
<path fill-rule="evenodd" clip-rule="evenodd" d="M1135.33 124.274C1135.33 118.752 1130.85 114.274 1125.33 114.274L1046.46 114.274C1040.94 114.274 1036.46 118.752 1036.46 124.274L1036.46 208.905C1036.46 214.428 1031.98 218.905 1026.46 218.905H984.367C978.844 218.905 974.367 223.382 974.367 228.905V298.711C974.367 304.234 978.844 308.711 984.367 308.711H1125.33C1130.85 308.711 1135.33 304.234 1135.33 298.711V228.905C1135.33 228.872 1135.33 228.839 1135.33 228.805V124.274Z" fill="#FF4D24"/>
<path fill-rule="evenodd" clip-rule="evenodd" d="M323.805 124.505C323.805 118.982 328.282 114.505 333.805 114.505H387.922C393.445 114.505 397.922 118.982 397.922 124.505V132.101V195.982V208.907C397.922 214.43 402.4 218.907 407.922 218.907H522.536C528.059 218.907 532.536 223.384 532.536 228.907V298.953C532.536 304.476 528.059 308.953 522.536 308.953H16.7461C11.2232 308.953 6.74609 304.476 6.74609 298.953V228.907C6.74609 223.384 11.2232 218.907 16.7461 218.907H313.805C319.327 218.907 323.805 214.43 323.805 208.907V195.982V132.101V124.505Z" fill="#378C7A"/>
</svg>
