<svg width="1143" height="501" viewBox="0 0 1143 501" fill="none" xmlns="http://www.w3.org/2000/svg">
<path d="M514.742 93.9062V32.3207H534.748V13.3991H471.596V32.3207H491.722V93.9062H514.742ZM565.067 93.9062V62.8122H584.591V93.9062H607.61V13.3991H584.591V43.529H565.067V13.3991H542.048V93.9062H565.067ZM649.417 37.6236H649.658L655.925 62.2096H643.27L649.417 37.6236ZM663.879 93.9062H686.778L663.517 13.3991H636.4L613.261 93.9062H635.316L639.052 78.9618H660.143L663.879 93.9062ZM735.49 54.2553H735.249L713.676 13.3991H692.344V93.9062H713.917V52.6885H714.158L736.936 93.9062H757.063V13.3991H735.49V54.2553ZM834.684 93.9062L814.316 52.568L833.117 13.3991H808.049L794.43 43.529H790.453V13.3991H767.434V93.9062H790.453V62.8122H794.189L808.651 93.9062H834.684ZM894.56 69.9228C894.56 41.6007 858.163 46.542 858.163 35.5747C858.163 31.9591 860.935 29.6693 865.033 29.6693C869.372 29.6693 873.228 32.8028 873.831 38.4672L893.717 33.4054C891.427 19.9072 881.424 12.1939 865.033 12.1939C848.401 12.1939 835.265 21.956 835.265 37.7441C835.265 65.3431 871.42 60.1607 871.42 71.6101C871.42 75.4667 868.287 77.5156 863.948 77.5156C858.404 77.5156 853.584 73.6589 852.86 67.0304L833.336 74.2615C835.988 87.0366 847.558 95.1114 863.948 95.1114C880.459 95.1114 894.56 86.0725 894.56 69.9228ZM947.808 93.9062V66.0662H972.274V47.9882H947.808V32.3207H975.648V13.3991H924.91V93.9062H947.808ZM1049.1 53.6527C1049.1 27.2589 1036.08 12.1939 1014.63 12.1939C993.177 12.1939 980.041 27.2589 980.041 53.6527C980.041 80.0465 993.177 95.1114 1014.63 95.1114C1036.08 95.1114 1049.1 80.0465 1049.1 53.6527ZM1003.78 53.6527C1003.78 38.4672 1007.4 31.236 1014.63 31.236C1021.86 31.236 1025.48 38.4672 1025.48 53.6527C1025.48 68.8382 1021.86 76.0693 1014.63 76.0693C1007.4 76.0693 1003.78 68.8382 1003.78 53.6527ZM1087.82 49.314H1079.39V31.8386H1087.82C1093.37 31.8386 1095.66 34.7311 1095.66 40.3955C1095.66 46.542 1093.25 49.314 1087.82 49.314ZM1122.65 93.9062C1120.36 91.1343 1119.16 88.2418 1118.43 84.3852L1115.9 69.9228C1114.46 62.8122 1110.48 58.835 1104.33 57.5093V57.2683C1112.05 55.7015 1119.16 48.8319 1119.16 37.6236C1119.16 21.1124 1108.31 13.3991 1090.59 13.3991H1056.73V93.9062H1079.39V66.6688H1086.38C1090.59 66.6688 1092.76 68.5971 1093.61 73.4179L1095.05 84.7468C1095.78 88.8444 1096.62 91.4959 1098.31 93.9062H1122.65ZM224.044 140.396L213.077 113.399H188.853L212.474 165.825V193.906H235.132V165.825L258.754 113.399H235.373L224.406 140.396H224.044ZM324.097 153.653C324.097 127.259 311.081 112.194 289.629 112.194C268.176 112.194 255.039 127.259 255.039 153.653C255.039 180.046 268.176 195.111 289.629 195.111C311.081 195.111 324.097 180.046 324.097 153.653ZM278.782 153.653C278.782 138.467 282.397 131.236 289.629 131.236C296.86 131.236 300.475 138.467 300.475 153.653C300.475 168.838 296.86 176.069 289.629 176.069C282.397 176.069 278.782 168.838 278.782 153.653ZM354.023 164.138V113.399H331.004V164.258C331.004 185.47 343.658 195.111 362.459 195.111C381.26 195.111 393.915 185.47 393.915 164.258V113.399H370.896V164.138C370.896 170.766 368.967 176.069 362.459 176.069C355.831 176.069 354.023 170.766 354.023 164.138ZM434.497 149.314H426.061V131.839H434.497C440.041 131.839 442.331 134.731 442.331 140.396C442.331 146.542 439.92 149.314 434.497 149.314ZM469.327 193.906C467.037 191.134 465.832 188.242 465.109 184.385L462.578 169.923C461.132 162.812 457.155 158.835 451.008 157.509V157.268C458.722 155.702 465.832 148.832 465.832 137.624C465.832 121.112 454.985 113.399 437.269 113.399H403.403V193.906H426.061V166.669H433.051C437.269 166.669 439.438 168.597 440.282 173.418L441.728 184.747C442.451 188.844 443.295 191.496 444.982 193.906H469.327ZM62.1035 269.923C62.1035 241.601 25.7065 246.542 25.7065 235.575C25.7065 231.959 28.4785 229.669 32.5762 229.669C36.9149 229.669 40.7715 232.803 41.3741 238.467L61.2598 233.405C58.97 219.907 48.9668 212.194 32.5762 212.194C15.9444 212.194 2.8078 221.956 2.8078 237.744C2.8078 265.343 38.9637 260.161 38.9637 271.61C38.9637 275.467 35.8302 277.516 31.4915 277.516C25.9476 277.516 21.1268 273.659 20.4037 267.03L0.87948 274.262C3.53091 287.037 15.1008 295.111 31.4915 295.111C48.0027 295.111 62.1035 286.072 62.1035 269.923ZM91.3276 264.138V213.399H68.3084V264.258C68.3084 285.47 80.9629 295.111 99.764 295.111C118.565 295.111 131.22 285.47 131.22 264.258V213.399H108.2V264.138C108.2 270.766 106.272 276.069 99.764 276.069C93.1354 276.069 91.3276 270.766 91.3276 264.138ZM186.023 252.689C193.616 250.881 198.557 244.734 198.557 234.731C198.557 221.594 190.241 213.399 174.453 213.399H140.708V293.906H174.212C192.772 293.906 201.329 284.747 201.329 271.61C201.329 261.727 195.906 254.737 186.023 252.93V252.689ZM162.763 230.633H169.391C174.333 230.633 176.502 233.285 176.502 238.588C176.502 243.891 174.212 246.421 169.271 246.421H162.763V230.633ZM162.763 260.763H170.717C175.899 260.763 178.189 263.656 178.189 268.718C178.189 274.021 176.141 276.792 170.717 276.792H162.763V260.763ZM260.57 250.037H260.811L260.691 266.789V293.906H282.384V213.399H258.642L245.626 245.337H245.264L232.369 213.399H208.265V293.906H229.958V266.789L229.838 250.037H230.079L239.6 274.985H251.17L260.57 250.037ZM292.77 213.399V293.906H315.789V213.399H292.77ZM382.116 269.923C382.116 241.601 345.719 246.542 345.719 235.575C345.719 231.959 348.491 229.669 352.589 229.669C356.928 229.669 360.784 232.803 361.387 238.467L381.273 233.405C378.983 219.907 368.98 212.194 352.589 212.194C335.957 212.194 322.82 221.956 322.82 237.744C322.82 265.343 358.976 260.161 358.976 271.61C358.976 275.467 355.843 277.516 351.504 277.516C345.96 277.516 341.139 273.659 340.416 267.03L320.892 274.262C323.544 287.037 335.113 295.111 351.504 295.111C368.015 295.111 382.116 286.072 382.116 269.923ZM445.436 269.923C445.436 241.601 409.039 246.542 409.039 235.575C409.039 231.959 411.811 229.669 415.909 229.669C420.247 229.669 424.104 232.803 424.707 238.467L444.592 233.405C442.303 219.907 432.299 212.194 415.909 212.194C399.277 212.194 386.14 221.956 386.14 237.744C386.14 265.343 422.296 260.161 422.296 271.61C422.296 275.467 419.163 277.516 414.824 277.516C409.28 277.516 404.459 273.659 403.736 267.03L384.212 274.262C386.864 287.037 398.433 295.111 414.824 295.111C431.335 295.111 445.436 286.072 445.436 269.923ZM452.364 213.399V293.906H475.383V213.399H452.364ZM551.955 253.653C551.955 227.259 538.939 212.194 517.486 212.194C496.034 212.194 482.897 227.259 482.897 253.653C482.897 280.046 496.034 295.111 517.486 295.111C538.939 295.111 551.955 280.046 551.955 253.653ZM506.639 253.653C506.639 238.467 510.255 231.236 517.486 231.236C524.717 231.236 528.333 238.467 528.333 253.653C528.333 268.838 524.717 276.069 517.486 276.069C510.255 276.069 506.639 268.838 506.639 253.653ZM602.73 254.255H602.489L580.916 213.399H559.584V293.906H581.157V252.689H581.398L604.177 293.906H624.303V213.399H602.73V254.255ZM645.038 269.923C637.807 269.923 632.504 275.467 632.504 282.457C632.504 289.447 637.807 294.991 645.038 294.991C652.27 294.991 657.572 289.447 657.572 282.457C657.572 275.467 652.27 269.923 645.038 269.923ZM862.958 213.399L855.727 259.679H855.365L847.652 213.399H824.994L841.505 293.906H864.283L871.997 248.591H872.358L880.072 293.906H902.729L919.24 213.399H897.426L889.713 259.679H889.472L882 213.399H862.958ZM976.733 275.105H947.206V261.848H972.876V244.734H947.206V232.2H976.612V213.399H924.91V293.906H976.733V275.105ZM1014.59 207.342C1014.04 209.499 1013.37 211.775 1012.59 214.168C1011.84 216.522 1011 218.935 1010.06 221.406C1009.16 223.838 1008.19 226.251 1007.17 228.644C1006.19 231.038 1005.21 233.333 1004.23 235.53H991.345C991.894 233.176 992.443 230.704 992.992 228.115C993.581 225.525 994.13 222.936 994.64 220.347C995.189 217.758 995.68 215.247 996.111 212.814C996.543 210.382 996.916 208.126 997.229 206.047H1013.71L1014.59 207.342ZM1026.24 213.399V293.906H1076.62V274.985H1049.26V213.399H1026.24ZM1084.27 213.399V293.906H1134.65V274.985H1107.29V213.399H1084.27ZM543.345 352.689C550.938 350.881 555.879 344.734 555.879 334.731C555.879 321.594 547.563 313.399 531.775 313.399H498.03V393.906H531.534C550.094 393.906 558.651 384.747 558.651 371.61C558.651 361.727 553.228 354.737 543.345 352.93V352.689ZM520.085 330.633H526.713C531.655 330.633 533.824 333.285 533.824 338.588C533.824 343.891 531.534 346.421 526.593 346.421H520.085V330.633ZM520.085 360.763H528.039C533.222 360.763 535.511 363.656 535.511 368.718C535.511 374.021 533.463 376.792 528.039 376.792H520.085V360.763ZM617.41 375.105H587.883V361.848H613.554V344.734H587.883V332.2H617.29V313.399H565.587V393.906H617.41V375.105ZM649.974 313.399V393.906H672.993V313.399H649.974ZM726.545 354.255H726.304L704.731 313.399H683.399V393.906H704.972V352.689H705.213L727.992 393.906H748.118V313.399H726.545V354.255ZM46.3154 493.906V432.321H66.3217V413.399H3.16935V432.321H23.2961V493.906H46.3154ZM137.433 453.653C137.433 427.259 124.417 412.194 102.964 412.194C81.5119 412.194 68.3752 427.259 68.3752 453.653C68.3752 480.046 81.5119 495.111 102.964 495.111C124.417 495.111 137.433 480.046 137.433 453.653ZM92.1176 453.653C92.1176 438.467 95.7332 431.236 102.964 431.236C110.196 431.236 113.811 438.467 113.811 453.653C113.811 468.838 110.196 476.069 102.964 476.069C95.7332 476.069 92.1176 468.838 92.1176 453.653ZM167.359 464.138V413.399H144.339V464.258C144.339 485.47 156.994 495.111 175.795 495.111C194.596 495.111 207.251 485.47 207.251 464.258V413.399H184.231V464.138C184.231 470.766 182.303 476.069 175.795 476.069C169.166 476.069 167.359 470.766 167.359 464.138ZM248.315 495.111C264.344 495.111 275.07 485.831 277.722 471.008L256.872 463.656C256.269 470.164 253.979 475.708 248.194 475.708C241.807 475.708 237.589 469.079 237.589 453.653C237.589 438.226 241.807 431.718 248.194 431.718C253.859 431.718 256.149 437.021 256.751 443.529L277.722 436.057C275.07 421.353 264.223 412.194 248.315 412.194C226.983 412.194 213.846 427.138 213.846 453.653C213.846 480.167 226.983 495.111 248.315 495.111ZM306.962 493.906V462.812H326.486V493.906H349.505V413.399H326.486V443.529H306.962V413.399H283.943V493.906H306.962ZM439.198 469.923C439.198 441.601 402.801 446.542 402.801 435.575C402.801 431.959 405.573 429.669 409.671 429.669C414.01 429.669 417.866 432.803 418.469 438.467L438.355 433.405C436.065 419.907 426.062 412.194 409.671 412.194C393.039 412.194 379.903 421.956 379.903 437.744C379.903 465.343 416.058 460.161 416.058 471.61C416.058 475.467 412.925 477.516 408.586 477.516C403.042 477.516 398.222 473.659 397.498 467.03L377.974 474.262C380.626 487.037 392.196 495.111 408.586 495.111C425.097 495.111 439.198 486.072 439.198 469.923ZM469.146 493.906V462.812H488.67V493.906H511.689V413.399H488.67V443.529H469.146V413.399H446.126V493.906H469.146ZM588.205 453.653C588.205 427.259 575.189 412.194 553.736 412.194C532.284 412.194 519.147 427.259 519.147 453.653C519.147 480.046 532.284 495.111 553.736 495.111C575.189 495.111 588.205 480.046 588.205 453.653ZM542.889 453.653C542.889 438.467 546.505 431.236 553.736 431.236C560.967 431.236 564.583 438.467 564.583 453.653C564.583 468.838 560.967 476.069 553.736 476.069C546.505 476.069 542.889 468.838 542.889 453.653ZM626.928 449.314H618.492V431.839H626.928C632.472 431.839 634.762 434.731 634.762 440.396C634.762 446.542 632.352 449.314 626.928 449.314ZM661.759 493.906C659.469 491.134 658.264 488.242 657.54 484.385L655.009 469.923C653.563 462.812 649.586 458.835 643.44 457.509V457.268C651.153 455.702 658.264 448.832 658.264 437.624C658.264 421.112 647.417 413.399 629.7 413.399H595.834V493.906H618.492V466.669H625.482C629.7 466.669 631.87 468.597 632.713 473.418L634.16 484.747C634.883 488.844 635.726 491.496 637.414 493.906H661.759ZM706.114 493.906V432.321H726.12V413.399H662.968V432.321H683.094V493.906H706.114ZM733.42 413.399V493.906H783.797V474.985H756.439V413.399H733.42ZM812.166 440.396L801.199 413.399H776.974L800.596 465.825V493.906H823.254V465.825L846.876 413.399H823.495L812.528 440.396H812.166ZM848.415 469.923C841.184 469.923 835.881 475.467 835.881 482.457C835.881 489.447 841.184 494.991 848.415 494.991C855.647 494.991 860.949 489.447 860.949 482.457C860.949 475.467 855.647 469.923 848.415 469.923Z" fill="black"/>
<path fill-rule="evenodd" clip-rule="evenodd" d="M11 12.8926C5.47715 12.8926 1 17.3697 1 22.8926V82.5645V83.9065V184.643C1 190.166 5.47716 194.643 11 194.643H149.915C155.438 194.643 159.915 190.166 159.915 184.643V103.906C159.915 98.3836 164.392 93.9065 169.915 93.9065H427C432.523 93.9065 437 89.4293 437 83.9065V22.8926C437 17.3697 432.523 12.8926 427 12.8926H11Z" fill="#3CA2F3"/>
<rect x="1" y="312.893" width="468.897" height="81.0139" rx="10" fill="#C4FF78"/>
<path fill-rule="evenodd" clip-rule="evenodd" d="M784.41 312.893C778.887 312.893 774.41 317.37 774.41 322.893V383.906C774.41 389.429 778.887 393.906 784.41 393.906H873.207C878.73 393.906 883.207 398.384 883.207 403.907V484.447C883.207 489.97 887.684 494.447 893.207 494.447H1127.11C1132.63 494.447 1137.11 489.97 1137.11 484.447V390.32C1137.11 388.204 1137.11 386.023 1137.11 383.906V322.893C1137.11 317.37 1132.63 312.893 1127.11 312.893H784.41Z" fill="#378C7A"/>
<path fill-rule="evenodd" clip-rule="evenodd" d="M514.438 113.63C508.915 113.63 504.438 118.107 504.438 123.63V184.644C504.438 190.167 508.915 194.644 514.438 194.644H677.777C683.3 194.644 687.777 199.121 687.777 204.644V283.366C687.777 288.889 692.254 293.366 697.777 293.366H782.543C788.066 293.366 792.543 288.889 792.543 283.366V204.644C792.543 199.121 797.021 194.644 802.543 194.644H1127.11C1132.63 194.644 1137.11 190.167 1137.11 184.644V123.63C1137.11 118.107 1132.63 113.63 1127.11 113.63H514.438Z" fill="#FF4D24"/>
</svg>
