<svg width="94" height="94" viewBox="0 0 94 94" fill="none" xmlns="http://www.w3.org/2000/svg">
<g clip-path="url(#clip0_119_159)">
<path d="M44.6994 77.3673C45.3462 77.3673 45.8717 76.8456 45.8717 76.1987C45.8717 74.6463 47.1402 73.3817 48.6977 73.3817C49.3445 73.3817 49.87 72.8601 49.87 72.2132C49.87 71.5663 49.3445 71.0447 48.6977 71.0447C45.8465 71.0447 43.5271 73.3567 43.5271 76.1987C43.5271 76.8456 44.0525 77.3694 44.6994 77.3694V77.3673Z" fill="black"/>
<path d="M11.2539 34.4425C11.2539 33.7956 10.7284 33.2739 10.0816 33.2739C7.23043 33.2739 4.91309 35.5859 4.91309 38.428C4.91309 39.0748 5.43852 39.5965 6.08536 39.5965C6.73221 39.5965 7.25764 39.0748 7.25764 38.428C7.25764 36.8755 8.52412 35.611 10.0837 35.611C10.7305 35.611 11.256 35.0893 11.256 34.4425H11.2539Z" fill="black"/>
<path d="M91.8711 28.5685L87.967 27.9634C86.5979 27.7589 85.3105 28.6895 85.0991 30.0542L84.9944 30.7345L79.334 29.8581V19.1827C81.532 18.9532 83.2569 17.1169 83.2569 14.8675V4.36113C83.2527 1.95729 81.2912 0 78.8776 0H15.8927C13.4812 0 11.5176 1.9552 11.5176 4.35904V14.8654C11.5176 17.1169 13.2426 18.9511 15.4406 19.1806V30.2441C13.8601 29.1778 11.9531 28.5539 9.90366 28.5539C4.4421 28.5539 0 32.9818 0 38.4259C0 43.4735 3.82247 47.6427 8.73138 48.2249V53.4874C8.73138 58.0071 11.503 61.8904 15.4406 63.541V92.8294C15.4406 93.4762 15.966 93.9979 16.6129 93.9979H78.1596C78.8064 93.9979 79.3319 93.4762 79.3319 92.8294V37.2449L83.8682 37.9481L83.7614 38.6304C83.6588 39.2919 83.82 39.9533 84.2157 40.4938C84.6113 41.0342 85.1954 41.389 85.8569 41.4912L89.761 42.0963C89.8907 42.1151 90.0184 42.1256 90.1461 42.1256C91.3624 42.1256 92.4363 41.2387 92.6289 40.0055L93.9644 31.4356C94.067 30.7741 93.9058 30.1126 93.5102 29.5722C93.1124 29.0297 92.5305 28.677 91.8669 28.5727L91.8711 28.5685ZM13.8643 14.8675V4.36113C13.8643 3.24476 14.7749 2.33706 15.8948 2.33706H78.8797C79.9996 2.33706 80.9103 3.24476 80.9103 4.36113V14.8675C80.9103 15.9838 79.9996 16.8915 78.8797 16.8915H15.8948C14.7749 16.8915 13.8643 15.9838 13.8643 14.8675ZM2.34456 38.428C2.34456 34.2734 5.73579 30.893 9.90366 30.893C14.0715 30.893 17.4628 34.2755 17.4628 38.428C17.4628 42.5804 14.0715 45.9629 9.90366 45.9629C5.73579 45.9629 2.34456 42.5825 2.34456 38.428ZM11.0759 53.4874V48.2249C12.6795 48.035 14.1657 47.4695 15.4406 46.6098V60.9368C12.8385 59.4616 11.0759 56.6779 11.0759 53.4874ZM76.9852 91.6629H17.7851V64.2191C18.3985 64.3256 19.0265 64.3923 19.6692 64.3923C25.6457 64.3923 30.5127 59.5868 30.6007 53.6502C30.6007 53.6356 30.609 53.6252 30.609 53.6085C30.609 48.8843 34.465 45.0427 39.2023 45.0427C43.9395 45.0427 47.7955 48.8863 47.7955 53.6085V66.4081C42.9075 67.009 39.106 71.1656 39.106 76.1987C39.106 81.6428 43.5502 86.0707 49.0096 86.0707C54.4691 86.0707 58.9154 81.6428 58.9154 76.1987C58.9154 71.1343 55.0699 66.9548 50.1379 66.3955V53.6105C50.1379 47.5968 45.2311 42.7077 39.1981 42.7077C33.165 42.7077 28.3566 47.5133 28.2687 53.4499C28.2687 53.4645 28.2603 53.4749 28.2603 53.4916C28.2603 58.2158 24.4043 62.0574 19.665 62.0574C19.016 62.0574 18.388 61.9781 17.781 61.8445V44.4063C17.781 44.4063 17.7789 44.3979 17.7789 44.3917C19.0432 42.7328 19.8052 40.6732 19.8052 38.4342C19.8052 36.1953 19.0453 34.1357 17.781 32.4768C17.781 32.4727 17.783 32.4706 17.783 32.4685V19.2349H76.9852V29.5012L75.7522 29.3114L75.859 28.6311C75.9616 27.9696 75.8004 27.3082 75.4047 26.7677C75.0091 26.2273 74.425 25.8725 73.7635 25.7703L69.8594 25.1652C68.4946 24.9523 67.203 25.8934 66.9915 27.256L65.656 35.8259C65.5534 36.4874 65.7146 37.1489 66.1102 37.6914C66.5059 38.2318 67.0899 38.5866 67.7514 38.6888L71.6555 39.294C73.033 39.4964 74.312 38.5678 74.5255 37.2031L74.6302 36.5229L76.9873 36.888V91.6629H76.9852ZM48.9594 68.6658C48.9594 68.6658 48.9657 68.6679 48.9678 68.6679C48.974 68.6679 48.9782 68.6637 48.9824 68.6637C48.9908 68.6637 49.0012 68.6637 49.0096 68.6637C53.1775 68.6637 56.5708 72.0462 56.5708 76.1987C56.5708 80.3511 53.1775 83.7336 49.0096 83.7336C44.8418 83.7336 41.4505 80.3511 41.4505 76.1987C41.4505 72.0629 44.8145 68.695 48.9573 68.6637L48.9594 68.6658ZM90.3136 39.6424C90.299 39.7363 90.2194 39.801 90.121 39.7843L86.2169 39.1792C86.1374 39.1667 86.0641 39.0644 86.0767 38.9872L86.3634 37.1509C86.4116 36.8442 86.3362 36.5333 86.152 36.2829C85.9678 36.0325 85.6915 35.8656 85.3858 35.8176L73.8305 34.0293C73.7698 34.021 73.7112 34.0147 73.6505 34.0147C73.4035 34.0147 73.1607 34.0919 72.9597 34.238C72.7085 34.4216 72.541 34.697 72.4929 35.0017L72.2061 36.8359C72.1914 36.9277 72.1056 36.9882 72.0135 36.9757L68.1094 36.3705C68.0298 36.358 67.9566 36.2579 67.9691 36.1786L69.3047 27.6066C69.3194 27.5147 69.4073 27.4563 69.4973 27.4667L73.4014 28.0719C73.4809 28.0844 73.5542 28.1846 73.5416 28.2639L73.2549 30.1001C73.2067 30.4069 73.2821 30.7178 73.4663 30.9682C73.6505 31.2186 73.9268 31.3855 74.2325 31.4335L85.7878 33.2218C86.4241 33.3157 87.027 32.8837 87.1254 32.2452L87.4122 30.411C87.4269 30.3192 87.519 30.2629 87.6048 30.2712L91.5089 30.8764C91.5864 30.8889 91.6617 30.989 91.6492 31.0683L90.3136 39.6403V39.6424Z" fill="black"/>
<path d="M67.1171 42.7744C66.4912 41.5433 64.9735 41.0467 63.7406 41.6706L63.123 41.9815L58.9028 33.6662L59.5203 33.3552C60.119 33.0527 60.5649 32.5352 60.7743 31.9008C60.9836 31.2644 60.9313 30.5862 60.6277 29.9895L58.8442 26.4755C58.2183 25.2423 56.7048 24.7457 55.4676 25.3696L47.7034 29.2842C46.4662 29.906 45.9701 31.4167 46.596 32.65L48.3795 36.1639C49.0054 37.3971 50.521 37.8916 51.7561 37.2677L52.3736 36.9568L56.5938 45.2722L55.9763 45.5831C54.7391 46.207 54.243 47.7177 54.8689 48.9489L56.6525 52.4628C56.956 53.0596 57.4731 53.5041 58.1094 53.7127C58.3669 53.7962 58.6328 53.84 58.8965 53.84C59.2859 53.84 59.6711 53.7482 60.0269 53.5708L67.7912 49.6542C68.3899 49.3516 68.8358 48.8341 69.0451 48.1998C69.2544 47.5633 69.2021 46.8852 68.8986 46.2884L67.1171 42.7744ZM66.732 47.5696L58.9656 51.4863C58.884 51.5301 58.7814 51.4946 58.7395 51.4132L56.956 47.8993C56.9141 47.8158 56.9476 47.7136 57.0314 47.6739L58.6935 46.8351C59.2712 46.543 59.5015 45.8397 59.2084 45.2638L53.9311 34.8639C53.7259 34.457 53.3115 34.2233 52.8844 34.2233C52.7086 34.2233 52.5265 34.2629 52.3569 34.3485L50.6948 35.1873C50.6131 35.2291 50.5085 35.1978 50.4666 35.1143L48.6831 31.6004C48.6412 31.5169 48.6747 31.4146 48.7563 31.375L56.5206 27.4583C56.6043 27.4145 56.7048 27.45 56.7487 27.5314L58.5323 31.0453C58.5679 31.1163 58.5281 31.2352 58.4569 31.2707L56.7948 32.1095C56.217 32.4016 55.9868 33.1048 56.2798 33.6808L61.5572 44.0807C61.8482 44.6566 62.5515 44.8861 63.1314 44.5961L64.7935 43.7573C64.8772 43.7134 64.9798 43.7468 65.0217 43.8303L66.8052 47.3442C66.8429 47.4152 66.8052 47.5362 66.732 47.5717V47.5696Z" fill="black"/>
</g>
<defs>
<clipPath id="clip0_119_159">
<rect width="94" height="94" fill="white"/>
</clipPath>
</defs>
</svg>
